G04 #@! TF.FileFunction,Copper,L1,Top,Signal*
%FSLAX46Y46*%
G04 Gerber Fmt 4.6, Leading zero omitted, Abs format (unit mm)*
G04 Created by KiCad (PCBNEW 0.201601071449+6428~40~ubuntu14.04.1-stable) date Tue 29 Mar 2016 02:08:47 BST*
%MOMM*%
G01*
G04 APERTURE LIST*
%ADD10C,0.100000*%
%ADD11R,2.032000X1.727200*%
%ADD12O,2.032000X1.727200*%
%ADD13R,1.727200X1.727200*%
%ADD14O,1.727200X1.727200*%
%ADD15R,0.620000X0.620000*%
%ADD16R,1.370000X0.500000*%
%ADD17C,0.800000*%
%ADD18C,0.500000*%
%ADD19C,0.300000*%
G04 APERTURE END LIST*
D10*
D11*
X156718000Y-124206000D03*
D12*
X156718000Y-121666000D03*
X156718000Y-119126000D03*
X156718000Y-116586000D03*
D13*
X162814000Y-124206000D03*
D14*
X160274000Y-124206000D03*
X162814000Y-121666000D03*
X160274000Y-121666000D03*
X162814000Y-119126000D03*
X160274000Y-119126000D03*
X162814000Y-116586000D03*
X160274000Y-116586000D03*
D15*
X163500000Y-103450000D03*
X163500000Y-102550000D03*
D16*
X168100000Y-108500000D03*
X171300000Y-108500000D03*
X168100000Y-107500000D03*
X171300000Y-107500000D03*
X168100000Y-106500000D03*
X171300000Y-106500000D03*
X168100000Y-105500000D03*
X171300000Y-105500000D03*
X168100000Y-104500000D03*
X171300000Y-104500000D03*
X168100000Y-103500000D03*
X171300000Y-103500000D03*
X168100000Y-102500000D03*
X171300000Y-102500000D03*
X168100000Y-101500000D03*
X171300000Y-101500000D03*
X168100000Y-100500000D03*
X171300000Y-100500000D03*
X168100000Y-99500000D03*
X171300000Y-99500000D03*
X168100000Y-98500000D03*
X171300000Y-98500000D03*
X168100000Y-97500000D03*
X171300000Y-97500000D03*
D17*
X166000000Y-122000000D03*
X161300000Y-109200000D03*
X162800000Y-109300000D03*
D18*
X172750000Y-104250000D02*
X172500000Y-104500000D01*
X172500000Y-104500000D02*
X171300000Y-104500000D01*
X172750000Y-103765000D02*
X172750000Y-104250000D01*
X171300000Y-103500000D02*
X172485000Y-103500000D01*
X172485000Y-103500000D02*
X172750000Y-103765000D01*
X171300000Y-103500000D02*
X168100000Y-103500000D01*
X168100000Y-103500000D02*
X163550000Y-103500000D01*
X163550000Y-103500000D02*
X163500000Y-103450000D01*
X154200000Y-111840000D02*
X162590000Y-103450000D01*
X162590000Y-103450000D02*
X163500000Y-103450000D01*
X154200000Y-111840000D02*
X154200000Y-121840400D01*
X154200000Y-121840400D02*
X156565600Y-124206000D01*
X156565600Y-124206000D02*
X156718000Y-124206000D01*
D19*
X174250000Y-106750000D02*
X173000000Y-105500000D01*
X173000000Y-105500000D02*
X171300000Y-105500000D01*
X174250000Y-111000000D02*
X174250000Y-106750000D01*
X166000000Y-119250000D02*
X174250000Y-111000000D01*
X166000000Y-122000000D02*
X166000000Y-119250000D01*
D18*
X166000000Y-99415000D02*
X166000000Y-101500000D01*
X166000000Y-101500000D02*
X166000000Y-102500000D01*
X166915000Y-101500000D02*
X166000000Y-101500000D01*
X168100000Y-102500000D02*
X166000000Y-102500000D01*
X166000000Y-102500000D02*
X163550000Y-102500000D01*
X168100000Y-98500000D02*
X166915000Y-98500000D01*
X166915000Y-98500000D02*
X166000000Y-99415000D01*
X168100000Y-101500000D02*
X166915000Y-101500000D01*
X171300000Y-102500000D02*
X168100000Y-102500000D01*
X163550000Y-102500000D02*
X163500000Y-102550000D01*
X153200000Y-111100000D02*
X161750000Y-102550000D01*
X161750000Y-102550000D02*
X163500000Y-102550000D01*
X161900000Y-126700000D02*
X162814000Y-125786000D01*
X162814000Y-125786000D02*
X162814000Y-124206000D01*
X155600000Y-126700000D02*
X161900000Y-126700000D01*
X153200000Y-124300000D02*
X155600000Y-126700000D01*
X153200000Y-111100000D02*
X153200000Y-124300000D01*
X162814000Y-121666000D02*
X162814000Y-124206000D01*
D19*
X173500000Y-107250000D02*
X172750000Y-106500000D01*
X172750000Y-106500000D02*
X171300000Y-106500000D01*
X173500000Y-110250000D02*
X173500000Y-107250000D01*
X165028670Y-118721330D02*
X173500000Y-110250000D01*
X165000000Y-118721330D02*
X165028670Y-118721330D01*
X160274000Y-121666000D02*
X161610399Y-120329601D01*
X161610399Y-120329601D02*
X163391729Y-120329601D01*
X163391729Y-120329601D02*
X165000000Y-118721330D01*
X167140000Y-105500000D02*
X168100000Y-105500000D01*
X167140000Y-105500000D02*
X165000000Y-105500000D01*
X165000000Y-105500000D02*
X161300000Y-109200000D01*
X167140000Y-107500000D02*
X168100000Y-107500000D01*
X167140000Y-107500000D02*
X166155000Y-107500000D01*
X166155000Y-107500000D02*
X158700000Y-114955000D01*
X158700000Y-114955000D02*
X158700000Y-117552000D01*
X158700000Y-117552000D02*
X160274000Y-119126000D01*
X167140000Y-106500000D02*
X168100000Y-106500000D01*
X167140000Y-106500000D02*
X165600000Y-106500000D01*
X165600000Y-106500000D02*
X162800000Y-109300000D01*
X160274000Y-116586000D02*
X160274000Y-114976000D01*
X160274000Y-114976000D02*
X165500000Y-109750000D01*
X165500000Y-109750000D02*
X169000000Y-109750000D01*
X169000000Y-109750000D02*
X169750000Y-109000000D01*
X169750000Y-109000000D02*
X169750000Y-108000000D01*
X169750000Y-108000000D02*
X170250000Y-107500000D01*
X170250000Y-107500000D02*
X171300000Y-107500000D01*
M02*
