G04 #@! TF.FileFunction,Soldermask,Bot*
%FSLAX46Y46*%
G04 Gerber Fmt 4.6, Leading zero omitted, Abs format (unit mm)*
G04 Created by KiCad (PCBNEW 4.0.2-4+6225~38~ubuntu15.10.1-stable) date Sat 12 Mar 2016 12:16:19 GMT*
%MOMM*%
G01*
G04 APERTURE LIST*
%ADD10C,0.100000*%
%ADD11C,6.300000*%
%ADD12C,0.600000*%
%ADD13R,2.032000X1.727200*%
%ADD14O,2.032000X1.727200*%
%ADD15R,1.727200X1.727200*%
%ADD16O,1.727200X1.727200*%
%ADD17C,1.600200*%
%ADD18C,2.565400*%
G04 APERTURE END LIST*
D10*
D11*
X95250000Y-88900000D03*
D12*
X95250000Y-86400000D03*
X97750000Y-88900000D03*
X95250000Y-91400000D03*
X92750000Y-88900000D03*
X93450000Y-87100000D03*
X97050000Y-87100000D03*
X93450000Y-90700000D03*
X97050000Y-90700000D03*
D11*
X95250000Y-50038000D03*
D12*
X95250000Y-47538000D03*
X97750000Y-50038000D03*
X95250000Y-52538000D03*
X92750000Y-50038000D03*
X93450000Y-48238000D03*
X97050000Y-48238000D03*
X93450000Y-51838000D03*
X97050000Y-51838000D03*
D13*
X55880000Y-91440000D03*
D14*
X55880000Y-88900000D03*
X55880000Y-86360000D03*
X55880000Y-83820000D03*
D15*
X62230000Y-91440000D03*
D16*
X59690000Y-91440000D03*
X62230000Y-88900000D03*
X59690000Y-88900000D03*
X62230000Y-86360000D03*
X59690000Y-86360000D03*
X62230000Y-83820000D03*
X59690000Y-83820000D03*
D11*
X55633620Y-50038000D03*
D12*
X55633620Y-47538000D03*
X58133620Y-50038000D03*
X55633620Y-52538000D03*
X53133620Y-50038000D03*
X53833620Y-48238000D03*
X57433620Y-48238000D03*
X53833620Y-51838000D03*
X57433620Y-51838000D03*
D17*
X91959891Y-82869976D03*
X91959891Y-82869976D03*
X83959907Y-56170002D03*
X83959907Y-56170002D03*
D18*
X95959883Y-83370102D03*
X95959883Y-83370102D03*
X79959915Y-83370102D03*
X79959915Y-83370102D03*
X95960899Y-55669876D03*
X95960899Y-55669876D03*
X79958899Y-55669876D03*
X79958899Y-55669876D03*
X87959899Y-55657176D03*
X87959899Y-55657176D03*
X87959899Y-83382802D03*
X87959899Y-83382802D03*
M02*
