M48
;DRILL file {KiCad 4.0.2-4+6225~38~ubuntu15.10.1-stable} date Sat 12 Mar 2016 12:18:01 GMT
;FORMAT={-:-/ absolute / inch / decimal}
FMAT,2
INCH,TZ
T1C0.024
T2C0.130
%
G90
G05
M72
T1
X2.0919Y-1.97
X2.1194Y-1.8991
X2.1194Y-2.0409
X2.1903Y-1.8716
X2.1903Y-2.0684
X2.2612Y-1.8991
X2.2612Y-2.0409
X2.2887Y-1.97
X3.6516Y-1.97
X3.6516Y-3.5
X3.6791Y-1.8991
X3.6791Y-2.0409
X3.6791Y-3.4291
X3.6791Y-3.5709
X3.75Y-1.8716
X3.75Y-2.0684
X3.75Y-3.4016
X3.75Y-3.5984
X3.8209Y-1.8991
X3.8209Y-2.0409
X3.8209Y-3.4291
X3.8209Y-3.5709
X3.8484Y-1.97
X3.8484Y-3.5
T2
X2.1903Y-1.97
X3.75Y-1.97
X3.75Y-3.5
T0
M30
