G04 #@! TF.FileFunction,Legend,Bot*
%FSLAX46Y46*%
G04 Gerber Fmt 4.6, Leading zero omitted, Abs format (unit mm)*
G04 Created by KiCad (PCBNEW 4.0.2-4+6225~38~ubuntu15.10.1-stable) date Sat 12 Mar 2016 12:16:19 GMT*
%MOMM*%
G01*
G04 APERTURE LIST*
%ADD10C,0.100000*%
%ADD11C,0.300000*%
%ADD12C,0.150000*%
%ADD13C,6.300000*%
%ADD14C,0.600000*%
%ADD15R,2.032000X1.727200*%
%ADD16O,2.032000X1.727200*%
%ADD17R,1.727200X1.727200*%
%ADD18O,1.727200X1.727200*%
%ADD19C,1.600200*%
%ADD20C,2.565400*%
G04 APERTURE END LIST*
D10*
D11*
X82464285Y-88478571D02*
X82964285Y-87764286D01*
X83321428Y-88478571D02*
X83321428Y-86978571D01*
X82750000Y-86978571D01*
X82607142Y-87050000D01*
X82535714Y-87121429D01*
X82464285Y-87264286D01*
X82464285Y-87478571D01*
X82535714Y-87621429D01*
X82607142Y-87692857D01*
X82750000Y-87764286D01*
X83321428Y-87764286D01*
X81821428Y-88335714D02*
X81750000Y-88407143D01*
X81821428Y-88478571D01*
X81892857Y-88407143D01*
X81821428Y-88335714D01*
X81821428Y-88478571D01*
X80107142Y-86978571D02*
X79749999Y-88478571D01*
X79464285Y-87407143D01*
X79178571Y-88478571D01*
X78821428Y-86978571D01*
X77607142Y-88478571D02*
X77607142Y-87692857D01*
X77678571Y-87550000D01*
X77821428Y-87478571D01*
X78107142Y-87478571D01*
X78249999Y-87550000D01*
X77607142Y-88407143D02*
X77749999Y-88478571D01*
X78107142Y-88478571D01*
X78249999Y-88407143D01*
X78321428Y-88264286D01*
X78321428Y-88121429D01*
X78249999Y-87978571D01*
X78107142Y-87907143D01*
X77749999Y-87907143D01*
X77607142Y-87835714D01*
X76892856Y-88478571D02*
X76892856Y-87478571D01*
X76892856Y-87764286D02*
X76821428Y-87621429D01*
X76749999Y-87550000D01*
X76607142Y-87478571D01*
X76464285Y-87478571D01*
X75392857Y-88407143D02*
X75535714Y-88478571D01*
X75821428Y-88478571D01*
X75964285Y-88407143D01*
X76035714Y-88264286D01*
X76035714Y-87692857D01*
X75964285Y-87550000D01*
X75821428Y-87478571D01*
X75535714Y-87478571D01*
X75392857Y-87550000D01*
X75321428Y-87692857D01*
X75321428Y-87835714D01*
X76035714Y-87978571D01*
X74678571Y-88478571D02*
X74678571Y-86978571D01*
X74035714Y-88478571D02*
X74035714Y-87692857D01*
X74107143Y-87550000D01*
X74250000Y-87478571D01*
X74464285Y-87478571D01*
X74607143Y-87550000D01*
X74678571Y-87621429D01*
X72678571Y-88478571D02*
X72678571Y-87692857D01*
X72750000Y-87550000D01*
X72892857Y-87478571D01*
X73178571Y-87478571D01*
X73321428Y-87550000D01*
X72678571Y-88407143D02*
X72821428Y-88478571D01*
X73178571Y-88478571D01*
X73321428Y-88407143D01*
X73392857Y-88264286D01*
X73392857Y-88121429D01*
X73321428Y-87978571D01*
X73178571Y-87907143D01*
X72821428Y-87907143D01*
X72678571Y-87835714D01*
X71964285Y-88478571D02*
X71964285Y-87478571D01*
X71964285Y-87621429D02*
X71892857Y-87550000D01*
X71749999Y-87478571D01*
X71535714Y-87478571D01*
X71392857Y-87550000D01*
X71321428Y-87692857D01*
X71321428Y-88478571D01*
X71321428Y-87692857D02*
X71249999Y-87550000D01*
X71107142Y-87478571D01*
X70892857Y-87478571D01*
X70749999Y-87550000D01*
X70678571Y-87692857D01*
X70678571Y-88478571D01*
X85357142Y-90878571D02*
X85857142Y-90164286D01*
X86214285Y-90878571D02*
X86214285Y-89378571D01*
X85642857Y-89378571D01*
X85499999Y-89450000D01*
X85428571Y-89521429D01*
X85357142Y-89664286D01*
X85357142Y-89878571D01*
X85428571Y-90021429D01*
X85499999Y-90092857D01*
X85642857Y-90164286D01*
X86214285Y-90164286D01*
X84714285Y-90735714D02*
X84642857Y-90807143D01*
X84714285Y-90878571D01*
X84785714Y-90807143D01*
X84714285Y-90735714D01*
X84714285Y-90878571D01*
X83071428Y-89378571D02*
X82214285Y-89378571D01*
X82642856Y-90878571D02*
X82642856Y-89378571D01*
X81071428Y-90878571D02*
X81071428Y-90092857D01*
X81142857Y-89950000D01*
X81285714Y-89878571D01*
X81571428Y-89878571D01*
X81714285Y-89950000D01*
X81071428Y-90807143D02*
X81214285Y-90878571D01*
X81571428Y-90878571D01*
X81714285Y-90807143D01*
X81785714Y-90664286D01*
X81785714Y-90521429D01*
X81714285Y-90378571D01*
X81571428Y-90307143D01*
X81214285Y-90307143D01*
X81071428Y-90235714D01*
X80499999Y-89878571D02*
X80142856Y-90878571D01*
X79785714Y-89878571D02*
X80142856Y-90878571D01*
X80285714Y-91235714D01*
X80357142Y-91307143D01*
X80499999Y-91378571D01*
X78999999Y-90878571D02*
X79142857Y-90807143D01*
X79214285Y-90664286D01*
X79214285Y-89378571D01*
X78214285Y-90878571D02*
X78357143Y-90807143D01*
X78428571Y-90735714D01*
X78500000Y-90592857D01*
X78500000Y-90164286D01*
X78428571Y-90021429D01*
X78357143Y-89950000D01*
X78214285Y-89878571D01*
X78000000Y-89878571D01*
X77857143Y-89950000D01*
X77785714Y-90021429D01*
X77714285Y-90164286D01*
X77714285Y-90592857D01*
X77785714Y-90735714D01*
X77857143Y-90807143D01*
X78000000Y-90878571D01*
X78214285Y-90878571D01*
X77071428Y-90878571D02*
X77071428Y-89878571D01*
X77071428Y-90164286D02*
X77000000Y-90021429D01*
X76928571Y-89950000D01*
X76785714Y-89878571D01*
X76642857Y-89878571D01*
X76142857Y-90307143D02*
X75000000Y-90307143D01*
X74285714Y-90878571D02*
X74285714Y-89378571D01*
X73928571Y-89378571D01*
X73714286Y-89450000D01*
X73571428Y-89592857D01*
X73500000Y-89735714D01*
X73428571Y-90021429D01*
X73428571Y-90235714D01*
X73500000Y-90521429D01*
X73571428Y-90664286D01*
X73714286Y-90807143D01*
X73928571Y-90878571D01*
X74285714Y-90878571D01*
X72142857Y-90878571D02*
X72142857Y-90092857D01*
X72214286Y-89950000D01*
X72357143Y-89878571D01*
X72642857Y-89878571D01*
X72785714Y-89950000D01*
X72142857Y-90807143D02*
X72285714Y-90878571D01*
X72642857Y-90878571D01*
X72785714Y-90807143D01*
X72857143Y-90664286D01*
X72857143Y-90521429D01*
X72785714Y-90378571D01*
X72642857Y-90307143D01*
X72285714Y-90307143D01*
X72142857Y-90235714D01*
X71571428Y-89878571D02*
X71214285Y-90878571D01*
X70857143Y-89878571D01*
X70285714Y-90878571D02*
X70285714Y-89878571D01*
X70285714Y-89378571D02*
X70357143Y-89450000D01*
X70285714Y-89521429D01*
X70214286Y-89450000D01*
X70285714Y-89378571D01*
X70285714Y-89521429D01*
X69000000Y-90807143D02*
X69142857Y-90878571D01*
X69428571Y-90878571D01*
X69571428Y-90807143D01*
X69642857Y-90664286D01*
X69642857Y-90092857D01*
X69571428Y-89950000D01*
X69428571Y-89878571D01*
X69142857Y-89878571D01*
X69000000Y-89950000D01*
X68928571Y-90092857D01*
X68928571Y-90235714D01*
X69642857Y-90378571D01*
X68357143Y-90807143D02*
X68214286Y-90878571D01*
X67928571Y-90878571D01*
X67785714Y-90807143D01*
X67714286Y-90664286D01*
X67714286Y-90592857D01*
X67785714Y-90450000D01*
X67928571Y-90378571D01*
X68142857Y-90378571D01*
X68285714Y-90307143D01*
X68357143Y-90164286D01*
X68357143Y-90092857D01*
X68285714Y-89950000D01*
X68142857Y-89878571D01*
X67928571Y-89878571D01*
X67785714Y-89950000D01*
X89714286Y-63207143D02*
X89500000Y-63278571D01*
X89142857Y-63278571D01*
X89000000Y-63207143D01*
X88928571Y-63135714D01*
X88857143Y-62992857D01*
X88857143Y-62850000D01*
X88928571Y-62707143D01*
X89000000Y-62635714D01*
X89142857Y-62564286D01*
X89428571Y-62492857D01*
X89571429Y-62421429D01*
X89642857Y-62350000D01*
X89714286Y-62207143D01*
X89714286Y-62064286D01*
X89642857Y-61921429D01*
X89571429Y-61850000D01*
X89428571Y-61778571D01*
X89071429Y-61778571D01*
X88857143Y-61850000D01*
X88214286Y-62278571D02*
X88214286Y-63778571D01*
X88214286Y-62350000D02*
X88071429Y-62278571D01*
X87785715Y-62278571D01*
X87642858Y-62350000D01*
X87571429Y-62421429D01*
X87500000Y-62564286D01*
X87500000Y-62992857D01*
X87571429Y-63135714D01*
X87642858Y-63207143D01*
X87785715Y-63278571D01*
X88071429Y-63278571D01*
X88214286Y-63207143D01*
X86214286Y-63278571D02*
X86214286Y-62492857D01*
X86285715Y-62350000D01*
X86428572Y-62278571D01*
X86714286Y-62278571D01*
X86857143Y-62350000D01*
X86214286Y-63207143D02*
X86357143Y-63278571D01*
X86714286Y-63278571D01*
X86857143Y-63207143D01*
X86928572Y-63064286D01*
X86928572Y-62921429D01*
X86857143Y-62778571D01*
X86714286Y-62707143D01*
X86357143Y-62707143D01*
X86214286Y-62635714D01*
X85285714Y-63278571D02*
X85428572Y-63207143D01*
X85500000Y-63064286D01*
X85500000Y-61778571D01*
X84071429Y-63278571D02*
X84071429Y-62492857D01*
X84142858Y-62350000D01*
X84285715Y-62278571D01*
X84571429Y-62278571D01*
X84714286Y-62350000D01*
X84071429Y-63207143D02*
X84214286Y-63278571D01*
X84571429Y-63278571D01*
X84714286Y-63207143D01*
X84785715Y-63064286D01*
X84785715Y-62921429D01*
X84714286Y-62778571D01*
X84571429Y-62707143D01*
X84214286Y-62707143D01*
X84071429Y-62635714D01*
X83500000Y-63278571D02*
X82714286Y-62278571D01*
X83500000Y-62278571D02*
X82714286Y-63278571D01*
X81000000Y-63278571D02*
X81000000Y-61778571D01*
X80285714Y-63278571D02*
X80285714Y-61778571D01*
X79785714Y-62850000D01*
X79285714Y-61778571D01*
X79285714Y-63278571D01*
X78571428Y-61778571D02*
X78571428Y-62992857D01*
X78500000Y-63135714D01*
X78428571Y-63207143D01*
X78285714Y-63278571D01*
X78000000Y-63278571D01*
X77857142Y-63207143D01*
X77785714Y-63135714D01*
X77714285Y-62992857D01*
X77714285Y-61778571D01*
X75928571Y-62850000D02*
X75214285Y-62850000D01*
X76071428Y-63278571D02*
X75571428Y-61778571D01*
X75071428Y-63278571D01*
X73928571Y-63278571D02*
X73928571Y-61778571D01*
X73928571Y-63207143D02*
X74071428Y-63278571D01*
X74357142Y-63278571D01*
X74500000Y-63207143D01*
X74571428Y-63135714D01*
X74642857Y-62992857D01*
X74642857Y-62564286D01*
X74571428Y-62421429D01*
X74500000Y-62350000D01*
X74357142Y-62278571D01*
X74071428Y-62278571D01*
X73928571Y-62350000D01*
X72571428Y-63278571D02*
X72571428Y-62492857D01*
X72642857Y-62350000D01*
X72785714Y-62278571D01*
X73071428Y-62278571D01*
X73214285Y-62350000D01*
X72571428Y-63207143D02*
X72714285Y-63278571D01*
X73071428Y-63278571D01*
X73214285Y-63207143D01*
X73285714Y-63064286D01*
X73285714Y-62921429D01*
X73214285Y-62778571D01*
X73071428Y-62707143D01*
X72714285Y-62707143D01*
X72571428Y-62635714D01*
X71857142Y-62278571D02*
X71857142Y-63778571D01*
X71857142Y-62350000D02*
X71714285Y-62278571D01*
X71428571Y-62278571D01*
X71285714Y-62350000D01*
X71214285Y-62421429D01*
X71142856Y-62564286D01*
X71142856Y-62992857D01*
X71214285Y-63135714D01*
X71285714Y-63207143D01*
X71428571Y-63278571D01*
X71714285Y-63278571D01*
X71857142Y-63207143D01*
X70714285Y-62278571D02*
X70142856Y-62278571D01*
X70499999Y-61778571D02*
X70499999Y-63064286D01*
X70428571Y-63207143D01*
X70285713Y-63278571D01*
X70142856Y-63278571D01*
X69428570Y-63278571D02*
X69571428Y-63207143D01*
X69642856Y-63135714D01*
X69714285Y-62992857D01*
X69714285Y-62564286D01*
X69642856Y-62421429D01*
X69571428Y-62350000D01*
X69428570Y-62278571D01*
X69214285Y-62278571D01*
X69071428Y-62350000D01*
X68999999Y-62421429D01*
X68928570Y-62564286D01*
X68928570Y-62992857D01*
X68999999Y-63135714D01*
X69071428Y-63207143D01*
X69214285Y-63278571D01*
X69428570Y-63278571D01*
X68285713Y-63278571D02*
X68285713Y-62278571D01*
X68285713Y-62564286D02*
X68214285Y-62421429D01*
X68142856Y-62350000D01*
X67999999Y-62278571D01*
X67857142Y-62278571D01*
X66357142Y-62278571D02*
X65999999Y-63278571D01*
X65642857Y-62278571D01*
X64285714Y-63278571D02*
X65142857Y-63278571D01*
X64714285Y-63278571D02*
X64714285Y-61778571D01*
X64857142Y-61992857D01*
X65000000Y-62135714D01*
X65142857Y-62207143D01*
X83714285Y-65678571D02*
X84571428Y-65678571D01*
X84142856Y-65678571D02*
X84142856Y-64178571D01*
X84285713Y-64392857D01*
X84428571Y-64535714D01*
X84571428Y-64607143D01*
X83142857Y-64321429D02*
X83071428Y-64250000D01*
X82928571Y-64178571D01*
X82571428Y-64178571D01*
X82428571Y-64250000D01*
X82357142Y-64321429D01*
X82285714Y-64464286D01*
X82285714Y-64607143D01*
X82357142Y-64821429D01*
X83214285Y-65678571D01*
X82285714Y-65678571D01*
X80571429Y-64107143D02*
X81857143Y-66035714D01*
X80071428Y-65678571D02*
X80071428Y-64178571D01*
X79571428Y-65250000D01*
X79071428Y-64178571D01*
X79071428Y-65678571D01*
X77714285Y-65678571D02*
X77714285Y-64892857D01*
X77785714Y-64750000D01*
X77928571Y-64678571D01*
X78214285Y-64678571D01*
X78357142Y-64750000D01*
X77714285Y-65607143D02*
X77857142Y-65678571D01*
X78214285Y-65678571D01*
X78357142Y-65607143D01*
X78428571Y-65464286D01*
X78428571Y-65321429D01*
X78357142Y-65178571D01*
X78214285Y-65107143D01*
X77857142Y-65107143D01*
X77714285Y-65035714D01*
X76999999Y-65678571D02*
X76999999Y-64678571D01*
X76999999Y-64964286D02*
X76928571Y-64821429D01*
X76857142Y-64750000D01*
X76714285Y-64678571D01*
X76571428Y-64678571D01*
X75000000Y-64107143D02*
X76285714Y-66035714D01*
X74571428Y-64321429D02*
X74499999Y-64250000D01*
X74357142Y-64178571D01*
X73999999Y-64178571D01*
X73857142Y-64250000D01*
X73785713Y-64321429D01*
X73714285Y-64464286D01*
X73714285Y-64607143D01*
X73785713Y-64821429D01*
X74642856Y-65678571D01*
X73714285Y-65678571D01*
X72785714Y-64178571D02*
X72642857Y-64178571D01*
X72500000Y-64250000D01*
X72428571Y-64321429D01*
X72357142Y-64464286D01*
X72285714Y-64750000D01*
X72285714Y-65107143D01*
X72357142Y-65392857D01*
X72428571Y-65535714D01*
X72500000Y-65607143D01*
X72642857Y-65678571D01*
X72785714Y-65678571D01*
X72928571Y-65607143D01*
X73000000Y-65535714D01*
X73071428Y-65392857D01*
X73142857Y-65107143D01*
X73142857Y-64750000D01*
X73071428Y-64464286D01*
X73000000Y-64321429D01*
X72928571Y-64250000D01*
X72785714Y-64178571D01*
X70857143Y-65678571D02*
X71714286Y-65678571D01*
X71285714Y-65678571D02*
X71285714Y-64178571D01*
X71428571Y-64392857D01*
X71571429Y-64535714D01*
X71714286Y-64607143D01*
X69571429Y-64178571D02*
X69857143Y-64178571D01*
X70000000Y-64250000D01*
X70071429Y-64321429D01*
X70214286Y-64535714D01*
X70285715Y-64821429D01*
X70285715Y-65392857D01*
X70214286Y-65535714D01*
X70142858Y-65607143D01*
X70000000Y-65678571D01*
X69714286Y-65678571D01*
X69571429Y-65607143D01*
X69500000Y-65535714D01*
X69428572Y-65392857D01*
X69428572Y-65035714D01*
X69500000Y-64892857D01*
X69571429Y-64821429D01*
X69714286Y-64750000D01*
X70000000Y-64750000D01*
X70142858Y-64821429D01*
X70214286Y-64892857D01*
X70285715Y-65035714D01*
X85178572Y-67078571D02*
X84892858Y-68078571D01*
X84607144Y-67364286D01*
X84321429Y-68078571D01*
X84035715Y-67078571D01*
X83607143Y-67078571D02*
X83321429Y-68078571D01*
X83035715Y-67364286D01*
X82750000Y-68078571D01*
X82464286Y-67078571D01*
X82035714Y-67078571D02*
X81750000Y-68078571D01*
X81464286Y-67364286D01*
X81178571Y-68078571D01*
X80892857Y-67078571D01*
X80321428Y-67935714D02*
X80250000Y-68007143D01*
X80321428Y-68078571D01*
X80392857Y-68007143D01*
X80321428Y-67935714D01*
X80321428Y-68078571D01*
X78964285Y-68007143D02*
X79107142Y-68078571D01*
X79392856Y-68078571D01*
X79535714Y-68007143D01*
X79607142Y-67935714D01*
X79678571Y-67792857D01*
X79678571Y-67364286D01*
X79607142Y-67221429D01*
X79535714Y-67150000D01*
X79392856Y-67078571D01*
X79107142Y-67078571D01*
X78964285Y-67150000D01*
X77678571Y-67078571D02*
X77678571Y-68078571D01*
X78321428Y-67078571D02*
X78321428Y-67864286D01*
X78250000Y-68007143D01*
X78107142Y-68078571D01*
X77892857Y-68078571D01*
X77750000Y-68007143D01*
X77678571Y-67935714D01*
X77035714Y-68007143D02*
X76892857Y-68078571D01*
X76607142Y-68078571D01*
X76464285Y-68007143D01*
X76392857Y-67864286D01*
X76392857Y-67792857D01*
X76464285Y-67650000D01*
X76607142Y-67578571D01*
X76821428Y-67578571D01*
X76964285Y-67507143D01*
X77035714Y-67364286D01*
X77035714Y-67292857D01*
X76964285Y-67150000D01*
X76821428Y-67078571D01*
X76607142Y-67078571D01*
X76464285Y-67150000D01*
X75964285Y-67078571D02*
X75392856Y-67078571D01*
X75749999Y-68078571D02*
X75749999Y-66792857D01*
X75678571Y-66650000D01*
X75535713Y-66578571D01*
X75392856Y-66578571D01*
X74892856Y-67935714D02*
X74821428Y-68007143D01*
X74892856Y-68078571D01*
X74964285Y-68007143D01*
X74892856Y-67935714D01*
X74892856Y-68078571D01*
X73535713Y-68007143D02*
X73678570Y-68078571D01*
X73964284Y-68078571D01*
X74107142Y-68007143D01*
X74178570Y-67935714D01*
X74249999Y-67792857D01*
X74249999Y-67364286D01*
X74178570Y-67221429D01*
X74107142Y-67150000D01*
X73964284Y-67078571D01*
X73678570Y-67078571D01*
X73535713Y-67150000D01*
X72678570Y-68078571D02*
X72821428Y-68007143D01*
X72892856Y-67935714D01*
X72964285Y-67792857D01*
X72964285Y-67364286D01*
X72892856Y-67221429D01*
X72821428Y-67150000D01*
X72678570Y-67078571D01*
X72464285Y-67078571D01*
X72321428Y-67150000D01*
X72249999Y-67221429D01*
X72178570Y-67364286D01*
X72178570Y-67792857D01*
X72249999Y-67935714D01*
X72321428Y-68007143D01*
X72464285Y-68078571D01*
X72678570Y-68078571D01*
X71535713Y-67935714D02*
X71464285Y-68007143D01*
X71535713Y-68078571D01*
X71607142Y-68007143D01*
X71535713Y-67935714D01*
X71535713Y-68078571D01*
X70178570Y-67078571D02*
X70178570Y-68078571D01*
X70821427Y-67078571D02*
X70821427Y-67864286D01*
X70749999Y-68007143D01*
X70607141Y-68078571D01*
X70392856Y-68078571D01*
X70249999Y-68007143D01*
X70178570Y-67935714D01*
X69464284Y-68078571D02*
X69464284Y-66578571D01*
X69321427Y-67507143D02*
X68892856Y-68078571D01*
X68892856Y-67078571D02*
X69464284Y-67650000D01*
D12*
X57150000Y-90170000D02*
X57150000Y-82550000D01*
X54610000Y-90170000D02*
X54610000Y-82550000D01*
X54330000Y-92990000D02*
X54330000Y-91440000D01*
X57150000Y-82550000D02*
X54610000Y-82550000D01*
X54610000Y-90170000D02*
X57150000Y-90170000D01*
X57430000Y-91440000D02*
X57430000Y-92990000D01*
X57430000Y-92990000D02*
X54330000Y-92990000D01*
X63500000Y-90170000D02*
X63500000Y-82550000D01*
X63500000Y-82550000D02*
X58420000Y-82550000D01*
X58420000Y-82550000D02*
X58420000Y-92710000D01*
X58420000Y-92710000D02*
X60960000Y-92710000D01*
X63780000Y-91440000D02*
X63780000Y-92990000D01*
X60960000Y-92710000D02*
X60960000Y-90170000D01*
X60960000Y-90170000D02*
X63500000Y-90170000D01*
X63780000Y-92990000D02*
X62230000Y-92990000D01*
D10*
G36*
X56507750Y-74177520D02*
X56516713Y-74244669D01*
X56552932Y-74267469D01*
X56579188Y-74268108D01*
X56618523Y-74249778D01*
X56704496Y-74198255D01*
X56831894Y-74117006D01*
X56995506Y-74009499D01*
X57190121Y-73879202D01*
X57410527Y-73729583D01*
X57651513Y-73564107D01*
X57907867Y-73386244D01*
X57974932Y-73339421D01*
X58235426Y-73156916D01*
X58482095Y-72983332D01*
X58709636Y-72822454D01*
X58912748Y-72678063D01*
X59086132Y-72553945D01*
X59224485Y-72453882D01*
X59322508Y-72381657D01*
X59374899Y-72341055D01*
X59379869Y-72336653D01*
X59447785Y-72234568D01*
X59460500Y-72154090D01*
X59450785Y-72076354D01*
X59415130Y-72051669D01*
X59343773Y-72075112D01*
X59324077Y-72085293D01*
X59271600Y-72117623D01*
X59174931Y-72181425D01*
X59040179Y-72272424D01*
X58873458Y-72386343D01*
X58680879Y-72518907D01*
X58468555Y-72665840D01*
X58242599Y-72822865D01*
X58009121Y-72985707D01*
X57774235Y-73150089D01*
X57544052Y-73311736D01*
X57324685Y-73466372D01*
X57122246Y-73609720D01*
X56942847Y-73737506D01*
X56792600Y-73845451D01*
X56677617Y-73929282D01*
X56604012Y-73984721D01*
X56579188Y-74005577D01*
X56526691Y-74092618D01*
X56507750Y-74177520D01*
X56507750Y-74177520D01*
X56507750Y-74177520D01*
G37*
X56507750Y-74177520D02*
X56516713Y-74244669D01*
X56552932Y-74267469D01*
X56579188Y-74268108D01*
X56618523Y-74249778D01*
X56704496Y-74198255D01*
X56831894Y-74117006D01*
X56995506Y-74009499D01*
X57190121Y-73879202D01*
X57410527Y-73729583D01*
X57651513Y-73564107D01*
X57907867Y-73386244D01*
X57974932Y-73339421D01*
X58235426Y-73156916D01*
X58482095Y-72983332D01*
X58709636Y-72822454D01*
X58912748Y-72678063D01*
X59086132Y-72553945D01*
X59224485Y-72453882D01*
X59322508Y-72381657D01*
X59374899Y-72341055D01*
X59379869Y-72336653D01*
X59447785Y-72234568D01*
X59460500Y-72154090D01*
X59450785Y-72076354D01*
X59415130Y-72051669D01*
X59343773Y-72075112D01*
X59324077Y-72085293D01*
X59271600Y-72117623D01*
X59174931Y-72181425D01*
X59040179Y-72272424D01*
X58873458Y-72386343D01*
X58680879Y-72518907D01*
X58468555Y-72665840D01*
X58242599Y-72822865D01*
X58009121Y-72985707D01*
X57774235Y-73150089D01*
X57544052Y-73311736D01*
X57324685Y-73466372D01*
X57122246Y-73609720D01*
X56942847Y-73737506D01*
X56792600Y-73845451D01*
X56677617Y-73929282D01*
X56604012Y-73984721D01*
X56579188Y-74005577D01*
X56526691Y-74092618D01*
X56507750Y-74177520D01*
X56507750Y-74177520D01*
G36*
X56507750Y-73289441D02*
X56513782Y-73372215D01*
X56536903Y-73408071D01*
X56566847Y-73413750D01*
X56603703Y-73396084D01*
X56687422Y-73345359D01*
X56812880Y-73264984D01*
X56974957Y-73158367D01*
X57168529Y-73028916D01*
X57388474Y-72880041D01*
X57629671Y-72715150D01*
X57886996Y-72537651D01*
X57972245Y-72478513D01*
X58234723Y-72295857D01*
X58483028Y-72122449D01*
X58711944Y-71961973D01*
X58916256Y-71818115D01*
X59090746Y-71694560D01*
X59230200Y-71594994D01*
X59329400Y-71523102D01*
X59383132Y-71482569D01*
X59389524Y-71477151D01*
X59440176Y-71406821D01*
X59459541Y-71308226D01*
X59460500Y-71269388D01*
X59451839Y-71169364D01*
X59426185Y-71128648D01*
X59420121Y-71127750D01*
X59387076Y-71145357D01*
X59308012Y-71195462D01*
X59188821Y-71273987D01*
X59035393Y-71376854D01*
X58853619Y-71499987D01*
X58649390Y-71639307D01*
X58428596Y-71790737D01*
X58197128Y-71950200D01*
X57960876Y-72113618D01*
X57725733Y-72276914D01*
X57497587Y-72436011D01*
X57282331Y-72586831D01*
X57085854Y-72725297D01*
X56914047Y-72847331D01*
X56772802Y-72948856D01*
X56668009Y-73025794D01*
X56605558Y-73074069D01*
X56595063Y-73083185D01*
X56529827Y-73166792D01*
X56508146Y-73268028D01*
X56507750Y-73289441D01*
X56507750Y-73289441D01*
X56507750Y-73289441D01*
G37*
X56507750Y-73289441D02*
X56513782Y-73372215D01*
X56536903Y-73408071D01*
X56566847Y-73413750D01*
X56603703Y-73396084D01*
X56687422Y-73345359D01*
X56812880Y-73264984D01*
X56974957Y-73158367D01*
X57168529Y-73028916D01*
X57388474Y-72880041D01*
X57629671Y-72715150D01*
X57886996Y-72537651D01*
X57972245Y-72478513D01*
X58234723Y-72295857D01*
X58483028Y-72122449D01*
X58711944Y-71961973D01*
X58916256Y-71818115D01*
X59090746Y-71694560D01*
X59230200Y-71594994D01*
X59329400Y-71523102D01*
X59383132Y-71482569D01*
X59389524Y-71477151D01*
X59440176Y-71406821D01*
X59459541Y-71308226D01*
X59460500Y-71269388D01*
X59451839Y-71169364D01*
X59426185Y-71128648D01*
X59420121Y-71127750D01*
X59387076Y-71145357D01*
X59308012Y-71195462D01*
X59188821Y-71273987D01*
X59035393Y-71376854D01*
X58853619Y-71499987D01*
X58649390Y-71639307D01*
X58428596Y-71790737D01*
X58197128Y-71950200D01*
X57960876Y-72113618D01*
X57725733Y-72276914D01*
X57497587Y-72436011D01*
X57282331Y-72586831D01*
X57085854Y-72725297D01*
X56914047Y-72847331D01*
X56772802Y-72948856D01*
X56668009Y-73025794D01*
X56605558Y-73074069D01*
X56595063Y-73083185D01*
X56529827Y-73166792D01*
X56508146Y-73268028D01*
X56507750Y-73289441D01*
X56507750Y-73289441D01*
G36*
X56507750Y-72351618D02*
X56511393Y-72439393D01*
X56527982Y-72480421D01*
X56566006Y-72491297D01*
X56579188Y-72491266D01*
X56619457Y-72473133D01*
X56706421Y-72421737D01*
X56834927Y-72340479D01*
X56999822Y-72232759D01*
X57195954Y-72101977D01*
X57418169Y-71951533D01*
X57661315Y-71784826D01*
X57890364Y-71626079D01*
X58146173Y-71447829D01*
X58391263Y-71276889D01*
X58619626Y-71117461D01*
X58825254Y-70973745D01*
X59002142Y-70849942D01*
X59144282Y-70750252D01*
X59245666Y-70678877D01*
X59296854Y-70642499D01*
X59463605Y-70522374D01*
X59454116Y-70340874D01*
X59446264Y-70237885D01*
X59432086Y-70183364D01*
X59404902Y-70162284D01*
X59373456Y-70159375D01*
X59331146Y-70177297D01*
X59243394Y-70228280D01*
X59116194Y-70308149D01*
X58955541Y-70412729D01*
X58767429Y-70537846D01*
X58557854Y-70679324D01*
X58332808Y-70832989D01*
X58098288Y-70994666D01*
X57860287Y-71160179D01*
X57624801Y-71325354D01*
X57397822Y-71486016D01*
X57185347Y-71637991D01*
X56993370Y-71777103D01*
X56827885Y-71899177D01*
X56694886Y-72000039D01*
X56600369Y-72075513D01*
X56550327Y-72121425D01*
X56544491Y-72129601D01*
X56521222Y-72212849D01*
X56508537Y-72320822D01*
X56507750Y-72351618D01*
X56507750Y-72351618D01*
X56507750Y-72351618D01*
G37*
X56507750Y-72351618D02*
X56511393Y-72439393D01*
X56527982Y-72480421D01*
X56566006Y-72491297D01*
X56579188Y-72491266D01*
X56619457Y-72473133D01*
X56706421Y-72421737D01*
X56834927Y-72340479D01*
X56999822Y-72232759D01*
X57195954Y-72101977D01*
X57418169Y-71951533D01*
X57661315Y-71784826D01*
X57890364Y-71626079D01*
X58146173Y-71447829D01*
X58391263Y-71276889D01*
X58619626Y-71117461D01*
X58825254Y-70973745D01*
X59002142Y-70849942D01*
X59144282Y-70750252D01*
X59245666Y-70678877D01*
X59296854Y-70642499D01*
X59463605Y-70522374D01*
X59454116Y-70340874D01*
X59446264Y-70237885D01*
X59432086Y-70183364D01*
X59404902Y-70162284D01*
X59373456Y-70159375D01*
X59331146Y-70177297D01*
X59243394Y-70228280D01*
X59116194Y-70308149D01*
X58955541Y-70412729D01*
X58767429Y-70537846D01*
X58557854Y-70679324D01*
X58332808Y-70832989D01*
X58098288Y-70994666D01*
X57860287Y-71160179D01*
X57624801Y-71325354D01*
X57397822Y-71486016D01*
X57185347Y-71637991D01*
X56993370Y-71777103D01*
X56827885Y-71899177D01*
X56694886Y-72000039D01*
X56600369Y-72075513D01*
X56550327Y-72121425D01*
X56544491Y-72129601D01*
X56521222Y-72212849D01*
X56508537Y-72320822D01*
X56507750Y-72351618D01*
X56507750Y-72351618D01*
G36*
X56507750Y-71237431D02*
X56509358Y-71349021D01*
X56517435Y-71411275D01*
X56536866Y-71438336D01*
X56572535Y-71444348D01*
X56579188Y-71444314D01*
X56619536Y-71426293D01*
X56707218Y-71374618D01*
X56837704Y-71292277D01*
X57006468Y-71182257D01*
X57208980Y-71047546D01*
X57440713Y-70891133D01*
X57697137Y-70716003D01*
X57973725Y-70525146D01*
X58000000Y-70506919D01*
X58262368Y-70324298D01*
X58510085Y-70150837D01*
X58738002Y-69990213D01*
X58940970Y-69846104D01*
X59113840Y-69722187D01*
X59251462Y-69622140D01*
X59348688Y-69549641D01*
X59400367Y-69508367D01*
X59406318Y-69502508D01*
X59439570Y-69432205D01*
X59456566Y-69333439D01*
X59458014Y-69225448D01*
X59444619Y-69127466D01*
X59417087Y-69058731D01*
X59389277Y-69038219D01*
X59355002Y-69054014D01*
X59274689Y-69102228D01*
X59154277Y-69178799D01*
X58999705Y-69279667D01*
X58816913Y-69400774D01*
X58611840Y-69538058D01*
X58390423Y-69687459D01*
X58158604Y-69844918D01*
X57922320Y-70006374D01*
X57687511Y-70167767D01*
X57460115Y-70325037D01*
X57246073Y-70474124D01*
X57051322Y-70610968D01*
X56881802Y-70731508D01*
X56743453Y-70831685D01*
X56642212Y-70907438D01*
X56584020Y-70954708D01*
X56579188Y-70959271D01*
X56538764Y-71010068D01*
X56516919Y-71074515D01*
X56508517Y-71172611D01*
X56507750Y-71237431D01*
X56507750Y-71237431D01*
X56507750Y-71237431D01*
G37*
X56507750Y-71237431D02*
X56509358Y-71349021D01*
X56517435Y-71411275D01*
X56536866Y-71438336D01*
X56572535Y-71444348D01*
X56579188Y-71444314D01*
X56619536Y-71426293D01*
X56707218Y-71374618D01*
X56837704Y-71292277D01*
X57006468Y-71182257D01*
X57208980Y-71047546D01*
X57440713Y-70891133D01*
X57697137Y-70716003D01*
X57973725Y-70525146D01*
X58000000Y-70506919D01*
X58262368Y-70324298D01*
X58510085Y-70150837D01*
X58738002Y-69990213D01*
X58940970Y-69846104D01*
X59113840Y-69722187D01*
X59251462Y-69622140D01*
X59348688Y-69549641D01*
X59400367Y-69508367D01*
X59406318Y-69502508D01*
X59439570Y-69432205D01*
X59456566Y-69333439D01*
X59458014Y-69225448D01*
X59444619Y-69127466D01*
X59417087Y-69058731D01*
X59389277Y-69038219D01*
X59355002Y-69054014D01*
X59274689Y-69102228D01*
X59154277Y-69178799D01*
X58999705Y-69279667D01*
X58816913Y-69400774D01*
X58611840Y-69538058D01*
X58390423Y-69687459D01*
X58158604Y-69844918D01*
X57922320Y-70006374D01*
X57687511Y-70167767D01*
X57460115Y-70325037D01*
X57246073Y-70474124D01*
X57051322Y-70610968D01*
X56881802Y-70731508D01*
X56743453Y-70831685D01*
X56642212Y-70907438D01*
X56584020Y-70954708D01*
X56579188Y-70959271D01*
X56538764Y-71010068D01*
X56516919Y-71074515D01*
X56508517Y-71172611D01*
X56507750Y-71237431D01*
X56507750Y-71237431D01*
G36*
X56507750Y-70115267D02*
X56508817Y-70240265D01*
X56514488Y-70314664D01*
X56528470Y-70351355D01*
X56554469Y-70363233D01*
X56579188Y-70363765D01*
X56628890Y-70345441D01*
X56719278Y-70296179D01*
X56839683Y-70222391D01*
X56979440Y-70130490D01*
X57063375Y-70072668D01*
X57193762Y-69981501D01*
X57366005Y-69861315D01*
X57569790Y-69719292D01*
X57794803Y-69562617D01*
X58030731Y-69398471D01*
X58267261Y-69234038D01*
X58365125Y-69166046D01*
X58580518Y-69015675D01*
X58783238Y-68872715D01*
X58966311Y-68742193D01*
X59122767Y-68629135D01*
X59245632Y-68538567D01*
X59327933Y-68475517D01*
X59357313Y-68450790D01*
X59409356Y-68397922D01*
X59440107Y-68349144D01*
X59455152Y-68285749D01*
X59460078Y-68189031D01*
X59460500Y-68105271D01*
X59459397Y-67981064D01*
X59453574Y-67907341D01*
X59439266Y-67871093D01*
X59412705Y-67859312D01*
X59389063Y-67858579D01*
X59351209Y-67876401D01*
X59267459Y-67926741D01*
X59143793Y-68005491D01*
X58986190Y-68108548D01*
X58800630Y-68231806D01*
X58593091Y-68371158D01*
X58369554Y-68522500D01*
X58135997Y-68681725D01*
X57898401Y-68844729D01*
X57662744Y-69007405D01*
X57435006Y-69165648D01*
X57221166Y-69315354D01*
X57027204Y-69452415D01*
X56859099Y-69572726D01*
X56722831Y-69672183D01*
X56624379Y-69746679D01*
X56569722Y-69792108D01*
X56563313Y-69798783D01*
X56532682Y-69852660D01*
X56515203Y-69933900D01*
X56508212Y-70057668D01*
X56507750Y-70115267D01*
X56507750Y-70115267D01*
X56507750Y-70115267D01*
G37*
X56507750Y-70115267D02*
X56508817Y-70240265D01*
X56514488Y-70314664D01*
X56528470Y-70351355D01*
X56554469Y-70363233D01*
X56579188Y-70363765D01*
X56628890Y-70345441D01*
X56719278Y-70296179D01*
X56839683Y-70222391D01*
X56979440Y-70130490D01*
X57063375Y-70072668D01*
X57193762Y-69981501D01*
X57366005Y-69861315D01*
X57569790Y-69719292D01*
X57794803Y-69562617D01*
X58030731Y-69398471D01*
X58267261Y-69234038D01*
X58365125Y-69166046D01*
X58580518Y-69015675D01*
X58783238Y-68872715D01*
X58966311Y-68742193D01*
X59122767Y-68629135D01*
X59245632Y-68538567D01*
X59327933Y-68475517D01*
X59357313Y-68450790D01*
X59409356Y-68397922D01*
X59440107Y-68349144D01*
X59455152Y-68285749D01*
X59460078Y-68189031D01*
X59460500Y-68105271D01*
X59459397Y-67981064D01*
X59453574Y-67907341D01*
X59439266Y-67871093D01*
X59412705Y-67859312D01*
X59389063Y-67858579D01*
X59351209Y-67876401D01*
X59267459Y-67926741D01*
X59143793Y-68005491D01*
X58986190Y-68108548D01*
X58800630Y-68231806D01*
X58593091Y-68371158D01*
X58369554Y-68522500D01*
X58135997Y-68681725D01*
X57898401Y-68844729D01*
X57662744Y-69007405D01*
X57435006Y-69165648D01*
X57221166Y-69315354D01*
X57027204Y-69452415D01*
X56859099Y-69572726D01*
X56722831Y-69672183D01*
X56624379Y-69746679D01*
X56569722Y-69792108D01*
X56563313Y-69798783D01*
X56532682Y-69852660D01*
X56515203Y-69933900D01*
X56508212Y-70057668D01*
X56507750Y-70115267D01*
X56507750Y-70115267D01*
G36*
X56523625Y-63664241D02*
X56523663Y-64359253D01*
X56523793Y-64993510D01*
X56524039Y-65569757D01*
X56524428Y-66090740D01*
X56524983Y-66559203D01*
X56525731Y-66977892D01*
X56526696Y-67349551D01*
X56527904Y-67676927D01*
X56529379Y-67962763D01*
X56531146Y-68209806D01*
X56533231Y-68420800D01*
X56535659Y-68598490D01*
X56538454Y-68745621D01*
X56541643Y-68864940D01*
X56545249Y-68959190D01*
X56549298Y-69031116D01*
X56553816Y-69083465D01*
X56558826Y-69118981D01*
X56564355Y-69140409D01*
X56570427Y-69150495D01*
X56573760Y-69152159D01*
X56624448Y-69140192D01*
X56707360Y-69099442D01*
X56796010Y-69044333D01*
X57046784Y-68872680D01*
X57229181Y-68747222D01*
X57229181Y-59380250D01*
X57404087Y-59380250D01*
X57578992Y-59380250D01*
X57595407Y-59525886D01*
X57612951Y-59621745D01*
X57637923Y-59692640D01*
X57648713Y-59708448D01*
X57695944Y-59726529D01*
X57789923Y-59742489D01*
X57913898Y-59753776D01*
X57962276Y-59756190D01*
X58100848Y-59759850D01*
X58203223Y-59752980D01*
X58275137Y-59727401D01*
X58322326Y-59674938D01*
X58350525Y-59587412D01*
X58365471Y-59456647D01*
X58372900Y-59274464D01*
X58375463Y-59167137D01*
X58378893Y-58944011D01*
X58374609Y-58776382D01*
X58357817Y-58656315D01*
X58323721Y-58575873D01*
X58267528Y-58527122D01*
X58184443Y-58502125D01*
X58069672Y-58492947D01*
X57967378Y-58491683D01*
X57807081Y-58501515D01*
X57700313Y-58534603D01*
X57640030Y-58595149D01*
X57619188Y-58687352D01*
X57619000Y-58699425D01*
X57619000Y-58808750D01*
X57444375Y-58808750D01*
X57269750Y-58808750D01*
X57269750Y-58662735D01*
X57284059Y-58501846D01*
X57330763Y-58379152D01*
X57415531Y-58290746D01*
X57544034Y-58232720D01*
X57721939Y-58201166D01*
X57952375Y-58192167D01*
X58193899Y-58202090D01*
X58381167Y-58234067D01*
X58521317Y-58293922D01*
X58621484Y-58387476D01*
X58688804Y-58520553D01*
X58730412Y-58698975D01*
X58746917Y-58840500D01*
X58753117Y-58993161D01*
X58749195Y-59169736D01*
X58736724Y-59354149D01*
X58717279Y-59530325D01*
X58692434Y-59682190D01*
X58663763Y-59793668D01*
X58650444Y-59825585D01*
X58581140Y-59924213D01*
X58485142Y-59994898D01*
X58354323Y-60040186D01*
X58180556Y-60062620D01*
X57955715Y-60064746D01*
X57893726Y-60062537D01*
X57688136Y-60046964D01*
X57539360Y-60019625D01*
X57465101Y-59992577D01*
X57368132Y-59925563D01*
X57302543Y-59828731D01*
X57262187Y-59690146D01*
X57246157Y-59567460D01*
X57229181Y-59380250D01*
X57229181Y-68747222D01*
X57230715Y-68746166D01*
X57230715Y-60523250D01*
X57405538Y-60523250D01*
X57580360Y-60523250D01*
X57591847Y-61240514D01*
X57595721Y-61471682D01*
X57599588Y-61647732D01*
X57604376Y-61777038D01*
X57611016Y-61867976D01*
X57620437Y-61928921D01*
X57633568Y-61968247D01*
X57651339Y-61994329D01*
X57674680Y-62015542D01*
X57678184Y-62018389D01*
X57763034Y-62056875D01*
X57887249Y-62078610D01*
X58028944Y-62083597D01*
X58166234Y-62071837D01*
X58277235Y-62043331D01*
X58321921Y-62018345D01*
X58346087Y-61997174D01*
X58364542Y-61972306D01*
X58378208Y-61935366D01*
X58388005Y-61877979D01*
X58394854Y-61791771D01*
X58399676Y-61668367D01*
X58403391Y-61499391D01*
X58406922Y-61276468D01*
X58407454Y-61240470D01*
X58418032Y-60523250D01*
X58590016Y-60523250D01*
X58762000Y-60523250D01*
X58762000Y-61169791D01*
X58760068Y-61464346D01*
X58752845Y-61702315D01*
X58738195Y-61890532D01*
X58713980Y-62035833D01*
X58678064Y-62145052D01*
X58628308Y-62225025D01*
X58562577Y-62282586D01*
X58478732Y-62324571D01*
X58392031Y-62353003D01*
X58258256Y-62377014D01*
X58091481Y-62387071D01*
X57911478Y-62384080D01*
X57738018Y-62368946D01*
X57590871Y-62342575D01*
X57501725Y-62312233D01*
X57430475Y-62273568D01*
X57374337Y-62230595D01*
X57331363Y-62175532D01*
X57299606Y-62100598D01*
X57277118Y-61998012D01*
X57261952Y-61859992D01*
X57252161Y-61678756D01*
X57245798Y-61446523D01*
X57242784Y-61277500D01*
X57230715Y-60523250D01*
X57230715Y-68746166D01*
X57238000Y-68741156D01*
X57238000Y-65444500D01*
X57238000Y-65301625D01*
X57238000Y-65158750D01*
X57263058Y-65158750D01*
X57263058Y-64139276D01*
X57268289Y-63983491D01*
X57290650Y-63864420D01*
X57337837Y-63775951D01*
X57417544Y-63711968D01*
X57537467Y-63666357D01*
X57705300Y-63633004D01*
X57928740Y-63605795D01*
X57935311Y-63605119D01*
X58083663Y-63587442D01*
X58210453Y-63567731D01*
X58301252Y-63548526D01*
X58340124Y-63533899D01*
X58368776Y-63476480D01*
X58379609Y-63383808D01*
X58372918Y-63281490D01*
X58348998Y-63195134D01*
X58335950Y-63172505D01*
X58304997Y-63142000D01*
X58257206Y-63123423D01*
X58178176Y-63114002D01*
X58053507Y-63110962D01*
X58015953Y-63110875D01*
X57855486Y-63116619D01*
X57748285Y-63137254D01*
X57684873Y-63177879D01*
X57655776Y-63243595D01*
X57650750Y-63307443D01*
X57645307Y-63349512D01*
X57618688Y-63371423D01*
X57555458Y-63379655D01*
X57476125Y-63380750D01*
X57301500Y-63380750D01*
X57301500Y-63268605D01*
X57314642Y-63159209D01*
X57346419Y-63049017D01*
X57347983Y-63045212D01*
X57394123Y-62965516D01*
X57462189Y-62907258D01*
X57561199Y-62867536D01*
X57700171Y-62843448D01*
X57888121Y-62832090D01*
X58015875Y-62830217D01*
X58248794Y-62835497D01*
X58426243Y-62857158D01*
X58555330Y-62900801D01*
X58643163Y-62972028D01*
X58696850Y-63076440D01*
X58723500Y-63219639D01*
X58730250Y-63393169D01*
X58725312Y-63528955D01*
X58705722Y-63635219D01*
X58664316Y-63716554D01*
X58593931Y-63777554D01*
X58487403Y-63822813D01*
X58337567Y-63856924D01*
X58137262Y-63884481D01*
X57931624Y-63905289D01*
X57814219Y-63921359D01*
X57716756Y-63943899D01*
X57664587Y-63965689D01*
X57627380Y-64026281D01*
X57610577Y-64122196D01*
X57614217Y-64228611D01*
X57638345Y-64320701D01*
X57663919Y-64360025D01*
X57726066Y-64390238D01*
X57831942Y-64412244D01*
X57962129Y-64424525D01*
X58097209Y-64425561D01*
X58217763Y-64413836D01*
X58254000Y-64406165D01*
X58327540Y-64379324D01*
X58367990Y-64333557D01*
X58394455Y-64246944D01*
X58395036Y-64244363D01*
X58424946Y-64111000D01*
X58597078Y-64111000D01*
X58769211Y-64111000D01*
X58747030Y-64258911D01*
X58712671Y-64423091D01*
X58660367Y-64536697D01*
X58579163Y-64612266D01*
X58458099Y-64662340D01*
X58377182Y-64682162D01*
X58261069Y-64696734D01*
X58108771Y-64702066D01*
X57938858Y-64699048D01*
X57769900Y-64688566D01*
X57620467Y-64671509D01*
X57509130Y-64648764D01*
X57481983Y-64639368D01*
X57383213Y-64578471D01*
X57316603Y-64486646D01*
X57278049Y-64354513D01*
X57263443Y-64172695D01*
X57263058Y-64139276D01*
X57263058Y-65158750D01*
X58000000Y-65158750D01*
X58762000Y-65158750D01*
X58762000Y-66079500D01*
X58762000Y-67000250D01*
X58587375Y-67000250D01*
X58412750Y-67000250D01*
X58412750Y-66619250D01*
X58412750Y-66238250D01*
X57904750Y-66238250D01*
X57396750Y-66238250D01*
X57396750Y-66095375D01*
X57396750Y-65952500D01*
X57904750Y-65952500D01*
X58412750Y-65952500D01*
X58412750Y-65698500D01*
X58412750Y-65444500D01*
X57825375Y-65444500D01*
X57238000Y-65444500D01*
X57238000Y-68741156D01*
X57308618Y-68692583D01*
X57576220Y-68507752D01*
X57844298Y-68321897D01*
X58107558Y-68138728D01*
X58360710Y-67961954D01*
X58598461Y-67795285D01*
X58815518Y-67642431D01*
X59006589Y-67507103D01*
X59166382Y-67393009D01*
X59289604Y-67303860D01*
X59370963Y-67243365D01*
X59404938Y-67215504D01*
X59412718Y-67204012D01*
X59419738Y-67186137D01*
X59426038Y-67158744D01*
X59431655Y-67118697D01*
X59436630Y-67062861D01*
X59441000Y-66988099D01*
X59444805Y-66891276D01*
X59448084Y-66769257D01*
X59450875Y-66618907D01*
X59453217Y-66437088D01*
X59455148Y-66220667D01*
X59456709Y-65966506D01*
X59457937Y-65671471D01*
X59458872Y-65332427D01*
X59459551Y-64946236D01*
X59460015Y-64509765D01*
X59460302Y-64019877D01*
X59460450Y-63473436D01*
X59460499Y-62867308D01*
X59460500Y-62728424D01*
X59460291Y-62022948D01*
X59459660Y-61380167D01*
X59458599Y-60799276D01*
X59457105Y-60279470D01*
X59455170Y-59819946D01*
X59452789Y-59419898D01*
X59449955Y-59078523D01*
X59446663Y-58795017D01*
X59442907Y-58568574D01*
X59438680Y-58398391D01*
X59433977Y-58283663D01*
X59428792Y-58223586D01*
X59426932Y-58215504D01*
X59404630Y-58169428D01*
X59354584Y-58074207D01*
X59280181Y-57936038D01*
X59184812Y-57761120D01*
X59071863Y-57555651D01*
X58944725Y-57325830D01*
X58806785Y-57077855D01*
X58722066Y-56926188D01*
X58556984Y-56631811D01*
X58419554Y-56388594D01*
X58306959Y-56191982D01*
X58216383Y-56037422D01*
X58145010Y-55920360D01*
X58090023Y-55836243D01*
X58048606Y-55780517D01*
X58017943Y-55748628D01*
X57995218Y-55736022D01*
X57985698Y-55735563D01*
X57961086Y-55751980D01*
X57921836Y-55798453D01*
X57865729Y-55878554D01*
X57790548Y-55995855D01*
X57694074Y-56153929D01*
X57574089Y-56356348D01*
X57428376Y-56606684D01*
X57254717Y-56908511D01*
X57222125Y-56965427D01*
X56523625Y-58185979D01*
X56523625Y-63664241D01*
X56523625Y-63664241D01*
X56523625Y-63664241D01*
G37*
X56523625Y-63664241D02*
X56523663Y-64359253D01*
X56523793Y-64993510D01*
X56524039Y-65569757D01*
X56524428Y-66090740D01*
X56524983Y-66559203D01*
X56525731Y-66977892D01*
X56526696Y-67349551D01*
X56527904Y-67676927D01*
X56529379Y-67962763D01*
X56531146Y-68209806D01*
X56533231Y-68420800D01*
X56535659Y-68598490D01*
X56538454Y-68745621D01*
X56541643Y-68864940D01*
X56545249Y-68959190D01*
X56549298Y-69031116D01*
X56553816Y-69083465D01*
X56558826Y-69118981D01*
X56564355Y-69140409D01*
X56570427Y-69150495D01*
X56573760Y-69152159D01*
X56624448Y-69140192D01*
X56707360Y-69099442D01*
X56796010Y-69044333D01*
X57046784Y-68872680D01*
X57229181Y-68747222D01*
X57229181Y-59380250D01*
X57404087Y-59380250D01*
X57578992Y-59380250D01*
X57595407Y-59525886D01*
X57612951Y-59621745D01*
X57637923Y-59692640D01*
X57648713Y-59708448D01*
X57695944Y-59726529D01*
X57789923Y-59742489D01*
X57913898Y-59753776D01*
X57962276Y-59756190D01*
X58100848Y-59759850D01*
X58203223Y-59752980D01*
X58275137Y-59727401D01*
X58322326Y-59674938D01*
X58350525Y-59587412D01*
X58365471Y-59456647D01*
X58372900Y-59274464D01*
X58375463Y-59167137D01*
X58378893Y-58944011D01*
X58374609Y-58776382D01*
X58357817Y-58656315D01*
X58323721Y-58575873D01*
X58267528Y-58527122D01*
X58184443Y-58502125D01*
X58069672Y-58492947D01*
X57967378Y-58491683D01*
X57807081Y-58501515D01*
X57700313Y-58534603D01*
X57640030Y-58595149D01*
X57619188Y-58687352D01*
X57619000Y-58699425D01*
X57619000Y-58808750D01*
X57444375Y-58808750D01*
X57269750Y-58808750D01*
X57269750Y-58662735D01*
X57284059Y-58501846D01*
X57330763Y-58379152D01*
X57415531Y-58290746D01*
X57544034Y-58232720D01*
X57721939Y-58201166D01*
X57952375Y-58192167D01*
X58193899Y-58202090D01*
X58381167Y-58234067D01*
X58521317Y-58293922D01*
X58621484Y-58387476D01*
X58688804Y-58520553D01*
X58730412Y-58698975D01*
X58746917Y-58840500D01*
X58753117Y-58993161D01*
X58749195Y-59169736D01*
X58736724Y-59354149D01*
X58717279Y-59530325D01*
X58692434Y-59682190D01*
X58663763Y-59793668D01*
X58650444Y-59825585D01*
X58581140Y-59924213D01*
X58485142Y-59994898D01*
X58354323Y-60040186D01*
X58180556Y-60062620D01*
X57955715Y-60064746D01*
X57893726Y-60062537D01*
X57688136Y-60046964D01*
X57539360Y-60019625D01*
X57465101Y-59992577D01*
X57368132Y-59925563D01*
X57302543Y-59828731D01*
X57262187Y-59690146D01*
X57246157Y-59567460D01*
X57229181Y-59380250D01*
X57229181Y-68747222D01*
X57230715Y-68746166D01*
X57230715Y-60523250D01*
X57405538Y-60523250D01*
X57580360Y-60523250D01*
X57591847Y-61240514D01*
X57595721Y-61471682D01*
X57599588Y-61647732D01*
X57604376Y-61777038D01*
X57611016Y-61867976D01*
X57620437Y-61928921D01*
X57633568Y-61968247D01*
X57651339Y-61994329D01*
X57674680Y-62015542D01*
X57678184Y-62018389D01*
X57763034Y-62056875D01*
X57887249Y-62078610D01*
X58028944Y-62083597D01*
X58166234Y-62071837D01*
X58277235Y-62043331D01*
X58321921Y-62018345D01*
X58346087Y-61997174D01*
X58364542Y-61972306D01*
X58378208Y-61935366D01*
X58388005Y-61877979D01*
X58394854Y-61791771D01*
X58399676Y-61668367D01*
X58403391Y-61499391D01*
X58406922Y-61276468D01*
X58407454Y-61240470D01*
X58418032Y-60523250D01*
X58590016Y-60523250D01*
X58762000Y-60523250D01*
X58762000Y-61169791D01*
X58760068Y-61464346D01*
X58752845Y-61702315D01*
X58738195Y-61890532D01*
X58713980Y-62035833D01*
X58678064Y-62145052D01*
X58628308Y-62225025D01*
X58562577Y-62282586D01*
X58478732Y-62324571D01*
X58392031Y-62353003D01*
X58258256Y-62377014D01*
X58091481Y-62387071D01*
X57911478Y-62384080D01*
X57738018Y-62368946D01*
X57590871Y-62342575D01*
X57501725Y-62312233D01*
X57430475Y-62273568D01*
X57374337Y-62230595D01*
X57331363Y-62175532D01*
X57299606Y-62100598D01*
X57277118Y-61998012D01*
X57261952Y-61859992D01*
X57252161Y-61678756D01*
X57245798Y-61446523D01*
X57242784Y-61277500D01*
X57230715Y-60523250D01*
X57230715Y-68746166D01*
X57238000Y-68741156D01*
X57238000Y-65444500D01*
X57238000Y-65301625D01*
X57238000Y-65158750D01*
X57263058Y-65158750D01*
X57263058Y-64139276D01*
X57268289Y-63983491D01*
X57290650Y-63864420D01*
X57337837Y-63775951D01*
X57417544Y-63711968D01*
X57537467Y-63666357D01*
X57705300Y-63633004D01*
X57928740Y-63605795D01*
X57935311Y-63605119D01*
X58083663Y-63587442D01*
X58210453Y-63567731D01*
X58301252Y-63548526D01*
X58340124Y-63533899D01*
X58368776Y-63476480D01*
X58379609Y-63383808D01*
X58372918Y-63281490D01*
X58348998Y-63195134D01*
X58335950Y-63172505D01*
X58304997Y-63142000D01*
X58257206Y-63123423D01*
X58178176Y-63114002D01*
X58053507Y-63110962D01*
X58015953Y-63110875D01*
X57855486Y-63116619D01*
X57748285Y-63137254D01*
X57684873Y-63177879D01*
X57655776Y-63243595D01*
X57650750Y-63307443D01*
X57645307Y-63349512D01*
X57618688Y-63371423D01*
X57555458Y-63379655D01*
X57476125Y-63380750D01*
X57301500Y-63380750D01*
X57301500Y-63268605D01*
X57314642Y-63159209D01*
X57346419Y-63049017D01*
X57347983Y-63045212D01*
X57394123Y-62965516D01*
X57462189Y-62907258D01*
X57561199Y-62867536D01*
X57700171Y-62843448D01*
X57888121Y-62832090D01*
X58015875Y-62830217D01*
X58248794Y-62835497D01*
X58426243Y-62857158D01*
X58555330Y-62900801D01*
X58643163Y-62972028D01*
X58696850Y-63076440D01*
X58723500Y-63219639D01*
X58730250Y-63393169D01*
X58725312Y-63528955D01*
X58705722Y-63635219D01*
X58664316Y-63716554D01*
X58593931Y-63777554D01*
X58487403Y-63822813D01*
X58337567Y-63856924D01*
X58137262Y-63884481D01*
X57931624Y-63905289D01*
X57814219Y-63921359D01*
X57716756Y-63943899D01*
X57664587Y-63965689D01*
X57627380Y-64026281D01*
X57610577Y-64122196D01*
X57614217Y-64228611D01*
X57638345Y-64320701D01*
X57663919Y-64360025D01*
X57726066Y-64390238D01*
X57831942Y-64412244D01*
X57962129Y-64424525D01*
X58097209Y-64425561D01*
X58217763Y-64413836D01*
X58254000Y-64406165D01*
X58327540Y-64379324D01*
X58367990Y-64333557D01*
X58394455Y-64246944D01*
X58395036Y-64244363D01*
X58424946Y-64111000D01*
X58597078Y-64111000D01*
X58769211Y-64111000D01*
X58747030Y-64258911D01*
X58712671Y-64423091D01*
X58660367Y-64536697D01*
X58579163Y-64612266D01*
X58458099Y-64662340D01*
X58377182Y-64682162D01*
X58261069Y-64696734D01*
X58108771Y-64702066D01*
X57938858Y-64699048D01*
X57769900Y-64688566D01*
X57620467Y-64671509D01*
X57509130Y-64648764D01*
X57481983Y-64639368D01*
X57383213Y-64578471D01*
X57316603Y-64486646D01*
X57278049Y-64354513D01*
X57263443Y-64172695D01*
X57263058Y-64139276D01*
X57263058Y-65158750D01*
X58000000Y-65158750D01*
X58762000Y-65158750D01*
X58762000Y-66079500D01*
X58762000Y-67000250D01*
X58587375Y-67000250D01*
X58412750Y-67000250D01*
X58412750Y-66619250D01*
X58412750Y-66238250D01*
X57904750Y-66238250D01*
X57396750Y-66238250D01*
X57396750Y-66095375D01*
X57396750Y-65952500D01*
X57904750Y-65952500D01*
X58412750Y-65952500D01*
X58412750Y-65698500D01*
X58412750Y-65444500D01*
X57825375Y-65444500D01*
X57238000Y-65444500D01*
X57238000Y-68741156D01*
X57308618Y-68692583D01*
X57576220Y-68507752D01*
X57844298Y-68321897D01*
X58107558Y-68138728D01*
X58360710Y-67961954D01*
X58598461Y-67795285D01*
X58815518Y-67642431D01*
X59006589Y-67507103D01*
X59166382Y-67393009D01*
X59289604Y-67303860D01*
X59370963Y-67243365D01*
X59404938Y-67215504D01*
X59412718Y-67204012D01*
X59419738Y-67186137D01*
X59426038Y-67158744D01*
X59431655Y-67118697D01*
X59436630Y-67062861D01*
X59441000Y-66988099D01*
X59444805Y-66891276D01*
X59448084Y-66769257D01*
X59450875Y-66618907D01*
X59453217Y-66437088D01*
X59455148Y-66220667D01*
X59456709Y-65966506D01*
X59457937Y-65671471D01*
X59458872Y-65332427D01*
X59459551Y-64946236D01*
X59460015Y-64509765D01*
X59460302Y-64019877D01*
X59460450Y-63473436D01*
X59460499Y-62867308D01*
X59460500Y-62728424D01*
X59460291Y-62022948D01*
X59459660Y-61380167D01*
X59458599Y-60799276D01*
X59457105Y-60279470D01*
X59455170Y-59819946D01*
X59452789Y-59419898D01*
X59449955Y-59078523D01*
X59446663Y-58795017D01*
X59442907Y-58568574D01*
X59438680Y-58398391D01*
X59433977Y-58283663D01*
X59428792Y-58223586D01*
X59426932Y-58215504D01*
X59404630Y-58169428D01*
X59354584Y-58074207D01*
X59280181Y-57936038D01*
X59184812Y-57761120D01*
X59071863Y-57555651D01*
X58944725Y-57325830D01*
X58806785Y-57077855D01*
X58722066Y-56926188D01*
X58556984Y-56631811D01*
X58419554Y-56388594D01*
X58306959Y-56191982D01*
X58216383Y-56037422D01*
X58145010Y-55920360D01*
X58090023Y-55836243D01*
X58048606Y-55780517D01*
X58017943Y-55748628D01*
X57995218Y-55736022D01*
X57985698Y-55735563D01*
X57961086Y-55751980D01*
X57921836Y-55798453D01*
X57865729Y-55878554D01*
X57790548Y-55995855D01*
X57694074Y-56153929D01*
X57574089Y-56356348D01*
X57428376Y-56606684D01*
X57254717Y-56908511D01*
X57222125Y-56965427D01*
X56523625Y-58185979D01*
X56523625Y-63664241D01*
X56523625Y-63664241D01*
D12*
X53452381Y-83833334D02*
X52452381Y-83833334D01*
X53452381Y-84309524D02*
X52452381Y-84309524D01*
X53166667Y-84642858D01*
X52452381Y-84976191D01*
X53452381Y-84976191D01*
X52452381Y-85452381D02*
X53261905Y-85452381D01*
X53357143Y-85500000D01*
X53404762Y-85547619D01*
X53452381Y-85642857D01*
X53452381Y-85833334D01*
X53404762Y-85928572D01*
X53357143Y-85976191D01*
X53261905Y-86023810D01*
X52452381Y-86023810D01*
X53071429Y-86500000D02*
X53071429Y-87261905D01*
X53357143Y-88309524D02*
X53404762Y-88261905D01*
X53452381Y-88119048D01*
X53452381Y-88023810D01*
X53404762Y-87880952D01*
X53309524Y-87785714D01*
X53214286Y-87738095D01*
X53023810Y-87690476D01*
X52880952Y-87690476D01*
X52690476Y-87738095D01*
X52595238Y-87785714D01*
X52500000Y-87880952D01*
X52452381Y-88023810D01*
X52452381Y-88119048D01*
X52500000Y-88261905D01*
X52547619Y-88309524D01*
X53166667Y-88690476D02*
X53166667Y-89166667D01*
X53452381Y-88595238D02*
X52452381Y-88928571D01*
X53452381Y-89261905D01*
X53452381Y-89595238D02*
X52452381Y-89595238D01*
X53452381Y-90166667D01*
X52452381Y-90166667D01*
X65452381Y-83595239D02*
X64452381Y-83595239D01*
X65452381Y-84071429D02*
X64452381Y-84071429D01*
X65166667Y-84404763D01*
X64452381Y-84738096D01*
X65452381Y-84738096D01*
X64452381Y-85214286D02*
X65261905Y-85214286D01*
X65357143Y-85261905D01*
X65404762Y-85309524D01*
X65452381Y-85404762D01*
X65452381Y-85595239D01*
X65404762Y-85690477D01*
X65357143Y-85738096D01*
X65261905Y-85785715D01*
X64452381Y-85785715D01*
X65071429Y-86261905D02*
X65071429Y-87023810D01*
X65404762Y-87452381D02*
X65452381Y-87595238D01*
X65452381Y-87833334D01*
X65404762Y-87928572D01*
X65357143Y-87976191D01*
X65261905Y-88023810D01*
X65166667Y-88023810D01*
X65071429Y-87976191D01*
X65023810Y-87928572D01*
X64976190Y-87833334D01*
X64928571Y-87642857D01*
X64880952Y-87547619D01*
X64833333Y-87500000D01*
X64738095Y-87452381D01*
X64642857Y-87452381D01*
X64547619Y-87500000D01*
X64500000Y-87547619D01*
X64452381Y-87642857D01*
X64452381Y-87880953D01*
X64500000Y-88023810D01*
X65452381Y-88452381D02*
X64452381Y-88452381D01*
X64452381Y-88833334D01*
X64500000Y-88928572D01*
X64547619Y-88976191D01*
X64642857Y-89023810D01*
X64785714Y-89023810D01*
X64880952Y-88976191D01*
X64928571Y-88928572D01*
X64976190Y-88833334D01*
X64976190Y-88452381D01*
X65452381Y-89452381D02*
X64452381Y-89452381D01*
X64452381Y-89833333D02*
X64452381Y-90452381D01*
X64833333Y-90119047D01*
X64833333Y-90261905D01*
X64880952Y-90357143D01*
X64928571Y-90404762D01*
X65023810Y-90452381D01*
X65261905Y-90452381D01*
X65357143Y-90404762D01*
X65404762Y-90357143D01*
X65452381Y-90261905D01*
X65452381Y-89976190D01*
X65404762Y-89880952D01*
X65357143Y-89833333D01*
%LPC*%
D13*
X95250000Y-88900000D03*
D14*
X95250000Y-86400000D03*
X97750000Y-88900000D03*
X95250000Y-91400000D03*
X92750000Y-88900000D03*
X93450000Y-87100000D03*
X97050000Y-87100000D03*
X93450000Y-90700000D03*
X97050000Y-90700000D03*
D13*
X95250000Y-50038000D03*
D14*
X95250000Y-47538000D03*
X97750000Y-50038000D03*
X95250000Y-52538000D03*
X92750000Y-50038000D03*
X93450000Y-48238000D03*
X97050000Y-48238000D03*
X93450000Y-51838000D03*
X97050000Y-51838000D03*
D15*
X55880000Y-91440000D03*
D16*
X55880000Y-88900000D03*
X55880000Y-86360000D03*
X55880000Y-83820000D03*
D17*
X62230000Y-91440000D03*
D18*
X59690000Y-91440000D03*
X62230000Y-88900000D03*
X59690000Y-88900000D03*
X62230000Y-86360000D03*
X59690000Y-86360000D03*
X62230000Y-83820000D03*
X59690000Y-83820000D03*
D13*
X55633620Y-50038000D03*
D14*
X55633620Y-47538000D03*
X58133620Y-50038000D03*
X55633620Y-52538000D03*
X53133620Y-50038000D03*
X53833620Y-48238000D03*
X57433620Y-48238000D03*
X53833620Y-51838000D03*
X57433620Y-51838000D03*
D19*
X91959891Y-82869976D03*
X91959891Y-82869976D03*
X83959907Y-56170002D03*
X83959907Y-56170002D03*
D20*
X95959883Y-83370102D03*
X95959883Y-83370102D03*
X79959915Y-83370102D03*
X79959915Y-83370102D03*
X95960899Y-55669876D03*
X95960899Y-55669876D03*
X79958899Y-55669876D03*
X79958899Y-55669876D03*
X87959899Y-55657176D03*
X87959899Y-55657176D03*
X87959899Y-83382802D03*
X87959899Y-83382802D03*
M02*
