G04 #@! TF.FileFunction,Legend,Top*
%FSLAX46Y46*%
G04 Gerber Fmt 4.6, Leading zero omitted, Abs format (unit mm)*
G04 Created by KiCad (PCBNEW 0.201512291232+6408~40~ubuntu14.04.1-stable) date Mon 28 Mar 2016 01:04:55 BST*
%MOMM*%
G01*
G04 APERTURE LIST*
%ADD10C,0.100000*%
%ADD11C,0.300000*%
%ADD12C,0.200000*%
%ADD13C,0.150000*%
%ADD14C,0.250000*%
%ADD15C,6.300000*%
%ADD16C,0.600000*%
%ADD17R,2.032000X1.727200*%
%ADD18O,2.032000X1.727200*%
%ADD19R,1.727200X1.727200*%
%ADD20O,1.727200X1.727200*%
%ADD21R,0.620000X0.620000*%
%ADD22R,1.370000X0.500000*%
%ADD23C,1.588000*%
%ADD24C,2.100000*%
G04 APERTURE END LIST*
D10*
D11*
X206707143Y-115714286D02*
X206778571Y-115500000D01*
X206778571Y-115142857D01*
X206707143Y-115000000D01*
X206635714Y-114928571D01*
X206492857Y-114857143D01*
X206350000Y-114857143D01*
X206207143Y-114928571D01*
X206135714Y-115000000D01*
X206064286Y-115142857D01*
X205992857Y-115428571D01*
X205921429Y-115571429D01*
X205850000Y-115642857D01*
X205707143Y-115714286D01*
X205564286Y-115714286D01*
X205421429Y-115642857D01*
X205350000Y-115571429D01*
X205278571Y-115428571D01*
X205278571Y-115071429D01*
X205350000Y-114857143D01*
X205778571Y-114214286D02*
X207278571Y-114214286D01*
X205850000Y-114214286D02*
X205778571Y-114071429D01*
X205778571Y-113785715D01*
X205850000Y-113642858D01*
X205921429Y-113571429D01*
X206064286Y-113500000D01*
X206492857Y-113500000D01*
X206635714Y-113571429D01*
X206707143Y-113642858D01*
X206778571Y-113785715D01*
X206778571Y-114071429D01*
X206707143Y-114214286D01*
X206778571Y-112214286D02*
X205992857Y-112214286D01*
X205850000Y-112285715D01*
X205778571Y-112428572D01*
X205778571Y-112714286D01*
X205850000Y-112857143D01*
X206707143Y-112214286D02*
X206778571Y-112357143D01*
X206778571Y-112714286D01*
X206707143Y-112857143D01*
X206564286Y-112928572D01*
X206421429Y-112928572D01*
X206278571Y-112857143D01*
X206207143Y-112714286D01*
X206207143Y-112357143D01*
X206135714Y-112214286D01*
X206778571Y-111285714D02*
X206707143Y-111428572D01*
X206564286Y-111500000D01*
X205278571Y-111500000D01*
X206778571Y-110071429D02*
X205992857Y-110071429D01*
X205850000Y-110142858D01*
X205778571Y-110285715D01*
X205778571Y-110571429D01*
X205850000Y-110714286D01*
X206707143Y-110071429D02*
X206778571Y-110214286D01*
X206778571Y-110571429D01*
X206707143Y-110714286D01*
X206564286Y-110785715D01*
X206421429Y-110785715D01*
X206278571Y-110714286D01*
X206207143Y-110571429D01*
X206207143Y-110214286D01*
X206135714Y-110071429D01*
X206778571Y-109500000D02*
X205778571Y-108714286D01*
X205778571Y-109500000D02*
X206778571Y-108714286D01*
X206778571Y-107000000D02*
X205278571Y-107000000D01*
X206778571Y-106285714D02*
X205278571Y-106285714D01*
X206350000Y-105785714D01*
X205278571Y-105285714D01*
X206778571Y-105285714D01*
X205278571Y-104571428D02*
X206492857Y-104571428D01*
X206635714Y-104500000D01*
X206707143Y-104428571D01*
X206778571Y-104285714D01*
X206778571Y-104000000D01*
X206707143Y-103857142D01*
X206635714Y-103785714D01*
X206492857Y-103714285D01*
X205278571Y-103714285D01*
X206350000Y-101928571D02*
X206350000Y-101214285D01*
X206778571Y-102071428D02*
X205278571Y-101571428D01*
X206778571Y-101071428D01*
X206778571Y-99928571D02*
X205278571Y-99928571D01*
X206707143Y-99928571D02*
X206778571Y-100071428D01*
X206778571Y-100357142D01*
X206707143Y-100500000D01*
X206635714Y-100571428D01*
X206492857Y-100642857D01*
X206064286Y-100642857D01*
X205921429Y-100571428D01*
X205850000Y-100500000D01*
X205778571Y-100357142D01*
X205778571Y-100071428D01*
X205850000Y-99928571D01*
X206778571Y-98571428D02*
X205992857Y-98571428D01*
X205850000Y-98642857D01*
X205778571Y-98785714D01*
X205778571Y-99071428D01*
X205850000Y-99214285D01*
X206707143Y-98571428D02*
X206778571Y-98714285D01*
X206778571Y-99071428D01*
X206707143Y-99214285D01*
X206564286Y-99285714D01*
X206421429Y-99285714D01*
X206278571Y-99214285D01*
X206207143Y-99071428D01*
X206207143Y-98714285D01*
X206135714Y-98571428D01*
X205778571Y-97857142D02*
X207278571Y-97857142D01*
X205850000Y-97857142D02*
X205778571Y-97714285D01*
X205778571Y-97428571D01*
X205850000Y-97285714D01*
X205921429Y-97214285D01*
X206064286Y-97142856D01*
X206492857Y-97142856D01*
X206635714Y-97214285D01*
X206707143Y-97285714D01*
X206778571Y-97428571D01*
X206778571Y-97714285D01*
X206707143Y-97857142D01*
X205778571Y-96714285D02*
X205778571Y-96142856D01*
X205278571Y-96499999D02*
X206564286Y-96499999D01*
X206707143Y-96428571D01*
X206778571Y-96285713D01*
X206778571Y-96142856D01*
X206778571Y-95428570D02*
X206707143Y-95571428D01*
X206635714Y-95642856D01*
X206492857Y-95714285D01*
X206064286Y-95714285D01*
X205921429Y-95642856D01*
X205850000Y-95571428D01*
X205778571Y-95428570D01*
X205778571Y-95214285D01*
X205850000Y-95071428D01*
X205921429Y-94999999D01*
X206064286Y-94928570D01*
X206492857Y-94928570D01*
X206635714Y-94999999D01*
X206707143Y-95071428D01*
X206778571Y-95214285D01*
X206778571Y-95428570D01*
X206778571Y-94285713D02*
X205778571Y-94285713D01*
X206064286Y-94285713D02*
X205921429Y-94214285D01*
X205850000Y-94142856D01*
X205778571Y-93999999D01*
X205778571Y-93857142D01*
X205778571Y-92357142D02*
X206778571Y-91999999D01*
X205778571Y-91642857D01*
X206778571Y-90285714D02*
X206778571Y-91142857D01*
X206778571Y-90714285D02*
X205278571Y-90714285D01*
X205492857Y-90857142D01*
X205635714Y-91000000D01*
X205707143Y-91142857D01*
X207821429Y-110285713D02*
X207750000Y-110214284D01*
X207678571Y-110071427D01*
X207678571Y-109714284D01*
X207750000Y-109571427D01*
X207821429Y-109499998D01*
X207964286Y-109428570D01*
X208107143Y-109428570D01*
X208321429Y-109499998D01*
X209178571Y-110357141D01*
X209178571Y-109428570D01*
X207678571Y-108499999D02*
X207678571Y-108357142D01*
X207750000Y-108214285D01*
X207821429Y-108142856D01*
X207964286Y-108071427D01*
X208250000Y-107999999D01*
X208607143Y-107999999D01*
X208892857Y-108071427D01*
X209035714Y-108142856D01*
X209107143Y-108214285D01*
X209178571Y-108357142D01*
X209178571Y-108499999D01*
X209107143Y-108642856D01*
X209035714Y-108714285D01*
X208892857Y-108785713D01*
X208607143Y-108857142D01*
X208250000Y-108857142D01*
X207964286Y-108785713D01*
X207821429Y-108714285D01*
X207750000Y-108642856D01*
X207678571Y-108499999D01*
X209178571Y-106571428D02*
X209178571Y-107428571D01*
X209178571Y-106999999D02*
X207678571Y-106999999D01*
X207892857Y-107142856D01*
X208035714Y-107285714D01*
X208107143Y-107428571D01*
X207678571Y-105285714D02*
X207678571Y-105571428D01*
X207750000Y-105714285D01*
X207821429Y-105785714D01*
X208035714Y-105928571D01*
X208321429Y-106000000D01*
X208892857Y-106000000D01*
X209035714Y-105928571D01*
X209107143Y-105857143D01*
X209178571Y-105714285D01*
X209178571Y-105428571D01*
X209107143Y-105285714D01*
X209035714Y-105214285D01*
X208892857Y-105142857D01*
X208535714Y-105142857D01*
X208392857Y-105214285D01*
X208321429Y-105285714D01*
X208250000Y-105428571D01*
X208250000Y-105714285D01*
X208321429Y-105857143D01*
X208392857Y-105928571D01*
X208535714Y-106000000D01*
X208607143Y-104500000D02*
X208607143Y-103357143D01*
X207678571Y-102357143D02*
X207678571Y-102214286D01*
X207750000Y-102071429D01*
X207821429Y-102000000D01*
X207964286Y-101928571D01*
X208250000Y-101857143D01*
X208607143Y-101857143D01*
X208892857Y-101928571D01*
X209035714Y-102000000D01*
X209107143Y-102071429D01*
X209178571Y-102214286D01*
X209178571Y-102357143D01*
X209107143Y-102500000D01*
X209035714Y-102571429D01*
X208892857Y-102642857D01*
X208607143Y-102714286D01*
X208250000Y-102714286D01*
X207964286Y-102642857D01*
X207821429Y-102571429D01*
X207750000Y-102500000D01*
X207678571Y-102357143D01*
X207678571Y-101357143D02*
X207678571Y-100428572D01*
X208250000Y-100928572D01*
X208250000Y-100714286D01*
X208321429Y-100571429D01*
X208392857Y-100500000D01*
X208535714Y-100428572D01*
X208892857Y-100428572D01*
X209035714Y-100500000D01*
X209107143Y-100571429D01*
X209178571Y-100714286D01*
X209178571Y-101142858D01*
X209107143Y-101285715D01*
X209035714Y-101357143D01*
X208607143Y-99785715D02*
X208607143Y-98642858D01*
X207821429Y-98000001D02*
X207750000Y-97928572D01*
X207678571Y-97785715D01*
X207678571Y-97428572D01*
X207750000Y-97285715D01*
X207821429Y-97214286D01*
X207964286Y-97142858D01*
X208107143Y-97142858D01*
X208321429Y-97214286D01*
X209178571Y-98071429D01*
X209178571Y-97142858D01*
X207678571Y-96642858D02*
X207678571Y-95714287D01*
X208250000Y-96214287D01*
X208250000Y-96000001D01*
X208321429Y-95857144D01*
X208392857Y-95785715D01*
X208535714Y-95714287D01*
X208892857Y-95714287D01*
X209035714Y-95785715D01*
X209107143Y-95857144D01*
X209178571Y-96000001D01*
X209178571Y-96428573D01*
X209107143Y-96571430D01*
X209035714Y-96642858D01*
X210578571Y-111178572D02*
X211578571Y-110892858D01*
X210864286Y-110607144D01*
X211578571Y-110321429D01*
X210578571Y-110035715D01*
X210578571Y-109607143D02*
X211578571Y-109321429D01*
X210864286Y-109035715D01*
X211578571Y-108750000D01*
X210578571Y-108464286D01*
X210578571Y-108035714D02*
X211578571Y-107750000D01*
X210864286Y-107464286D01*
X211578571Y-107178571D01*
X210578571Y-106892857D01*
X211435714Y-106321428D02*
X211507143Y-106250000D01*
X211578571Y-106321428D01*
X211507143Y-106392857D01*
X211435714Y-106321428D01*
X211578571Y-106321428D01*
X211507143Y-104964285D02*
X211578571Y-105107142D01*
X211578571Y-105392856D01*
X211507143Y-105535714D01*
X211435714Y-105607142D01*
X211292857Y-105678571D01*
X210864286Y-105678571D01*
X210721429Y-105607142D01*
X210650000Y-105535714D01*
X210578571Y-105392856D01*
X210578571Y-105107142D01*
X210650000Y-104964285D01*
X210578571Y-103678571D02*
X211578571Y-103678571D01*
X210578571Y-104321428D02*
X211364286Y-104321428D01*
X211507143Y-104250000D01*
X211578571Y-104107142D01*
X211578571Y-103892857D01*
X211507143Y-103750000D01*
X211435714Y-103678571D01*
X211507143Y-103035714D02*
X211578571Y-102892857D01*
X211578571Y-102607142D01*
X211507143Y-102464285D01*
X211364286Y-102392857D01*
X211292857Y-102392857D01*
X211150000Y-102464285D01*
X211078571Y-102607142D01*
X211078571Y-102821428D01*
X211007143Y-102964285D01*
X210864286Y-103035714D01*
X210792857Y-103035714D01*
X210650000Y-102964285D01*
X210578571Y-102821428D01*
X210578571Y-102607142D01*
X210650000Y-102464285D01*
X210578571Y-101964285D02*
X210578571Y-101392856D01*
X211578571Y-101749999D02*
X210292857Y-101749999D01*
X210150000Y-101678571D01*
X210078571Y-101535713D01*
X210078571Y-101392856D01*
X211435714Y-100892856D02*
X211507143Y-100821428D01*
X211578571Y-100892856D01*
X211507143Y-100964285D01*
X211435714Y-100892856D01*
X211578571Y-100892856D01*
X211507143Y-99535713D02*
X211578571Y-99678570D01*
X211578571Y-99964284D01*
X211507143Y-100107142D01*
X211435714Y-100178570D01*
X211292857Y-100249999D01*
X210864286Y-100249999D01*
X210721429Y-100178570D01*
X210650000Y-100107142D01*
X210578571Y-99964284D01*
X210578571Y-99678570D01*
X210650000Y-99535713D01*
X211578571Y-98678570D02*
X211507143Y-98821428D01*
X211435714Y-98892856D01*
X211292857Y-98964285D01*
X210864286Y-98964285D01*
X210721429Y-98892856D01*
X210650000Y-98821428D01*
X210578571Y-98678570D01*
X210578571Y-98464285D01*
X210650000Y-98321428D01*
X210721429Y-98249999D01*
X210864286Y-98178570D01*
X211292857Y-98178570D01*
X211435714Y-98249999D01*
X211507143Y-98321428D01*
X211578571Y-98464285D01*
X211578571Y-98678570D01*
X211435714Y-97535713D02*
X211507143Y-97464285D01*
X211578571Y-97535713D01*
X211507143Y-97607142D01*
X211435714Y-97535713D01*
X211578571Y-97535713D01*
X210578571Y-96178570D02*
X211578571Y-96178570D01*
X210578571Y-96821427D02*
X211364286Y-96821427D01*
X211507143Y-96749999D01*
X211578571Y-96607141D01*
X211578571Y-96392856D01*
X211507143Y-96249999D01*
X211435714Y-96178570D01*
X211578571Y-95464284D02*
X210078571Y-95464284D01*
X211007143Y-95321427D02*
X211578571Y-94892856D01*
X210578571Y-94892856D02*
X211150000Y-95464284D01*
D12*
X179276500Y-114459090D02*
X177498500Y-112681090D01*
D13*
X174843000Y-111257381D02*
X175033477Y-111257381D01*
X175128715Y-111305000D01*
X175223953Y-111400238D01*
X175271572Y-111590714D01*
X175271572Y-111924048D01*
X175223953Y-112114524D01*
X175128715Y-112209762D01*
X175033477Y-112257381D01*
X174843000Y-112257381D01*
X174747762Y-112209762D01*
X174652524Y-112114524D01*
X174604905Y-111924048D01*
X174604905Y-111590714D01*
X174652524Y-111400238D01*
X174747762Y-111305000D01*
X174843000Y-111257381D01*
X175700143Y-112257381D02*
X175700143Y-111590714D01*
X175700143Y-111781190D02*
X175747762Y-111685952D01*
X175795381Y-111638333D01*
X175890619Y-111590714D01*
X175985858Y-111590714D01*
X176319191Y-112257381D02*
X176319191Y-111590714D01*
X176319191Y-111257381D02*
X176271572Y-111305000D01*
X176319191Y-111352619D01*
X176366810Y-111305000D01*
X176319191Y-111257381D01*
X176319191Y-111352619D01*
X177223953Y-111590714D02*
X177223953Y-112400238D01*
X177176334Y-112495476D01*
X177128715Y-112543095D01*
X177033476Y-112590714D01*
X176890619Y-112590714D01*
X176795381Y-112543095D01*
X177223953Y-112209762D02*
X177128715Y-112257381D01*
X176938238Y-112257381D01*
X176843000Y-112209762D01*
X176795381Y-112162143D01*
X176747762Y-112066905D01*
X176747762Y-111781190D01*
X176795381Y-111685952D01*
X176843000Y-111638333D01*
X176938238Y-111590714D01*
X177128715Y-111590714D01*
X177223953Y-111638333D01*
X177700143Y-112257381D02*
X177700143Y-111590714D01*
X177700143Y-111257381D02*
X177652524Y-111305000D01*
X177700143Y-111352619D01*
X177747762Y-111305000D01*
X177700143Y-111257381D01*
X177700143Y-111352619D01*
X178176333Y-111590714D02*
X178176333Y-112257381D01*
X178176333Y-111685952D02*
X178223952Y-111638333D01*
X178319190Y-111590714D01*
X178462048Y-111590714D01*
X178557286Y-111638333D01*
X178604905Y-111733571D01*
X178604905Y-112257381D01*
D12*
X172233000Y-90330590D02*
X172033000Y-90630590D01*
X172233000Y-90330590D02*
X171933000Y-90130590D01*
X172727427Y-89530590D02*
G75*
G03X172233000Y-90330590I-894427J0D01*
G01*
X171833000Y-88280590D02*
X171833000Y-87930590D01*
X172333000Y-86880590D02*
X172633000Y-87030590D01*
X172133000Y-87130590D02*
X172333000Y-86880590D01*
X171833000Y-87430590D02*
X171833000Y-85280590D01*
X171333000Y-86880590D02*
G75*
G03X172333000Y-86880590I500000J-250000D01*
G01*
X171833000Y-85280590D02*
X172583000Y-86030590D01*
X171833000Y-85280590D02*
X171083000Y-86030590D01*
X174483000Y-90030590D02*
X174233000Y-90330590D01*
X174133000Y-89830590D02*
X174483000Y-90030590D01*
X173933000Y-89530590D02*
X176083000Y-89530590D01*
X174483000Y-89030590D02*
G75*
G03X174483000Y-90030590I-250000J-500000D01*
G01*
D14*
X171833000Y-84006780D02*
X171833000Y-84482971D01*
X171499667Y-83482971D02*
X171833000Y-84006780D01*
X172166334Y-83482971D01*
X176725857Y-88982971D02*
X177392524Y-89982971D01*
X177392524Y-88982971D02*
X176725857Y-89982971D01*
X170123476Y-90482971D02*
X170790143Y-90482971D01*
X170123476Y-91482971D01*
X170790143Y-91482971D01*
D12*
X176083000Y-89530590D02*
X175333000Y-90280590D01*
X176083000Y-89530590D02*
X175333000Y-88780590D01*
X173083000Y-89530590D02*
X173433000Y-89530590D01*
X172083000Y-89530590D02*
G75*
G03X172083000Y-89530590I-250000J0D01*
G01*
D13*
X227836000Y-82804000D02*
G75*
G03X227836000Y-82804000I-3300000J0D01*
G01*
X159764000Y-82804000D02*
G75*
G03X159764000Y-82804000I-3300000J0D01*
G01*
D10*
G36*
X217992250Y-112177520D02*
X217983287Y-112244669D01*
X217947068Y-112267469D01*
X217920812Y-112268108D01*
X217881477Y-112249778D01*
X217795504Y-112198255D01*
X217668106Y-112117006D01*
X217504494Y-112009499D01*
X217309879Y-111879202D01*
X217089473Y-111729583D01*
X216848487Y-111564107D01*
X216592133Y-111386244D01*
X216525068Y-111339421D01*
X216264574Y-111156916D01*
X216017905Y-110983332D01*
X215790364Y-110822454D01*
X215587252Y-110678063D01*
X215413868Y-110553945D01*
X215275515Y-110453882D01*
X215177492Y-110381657D01*
X215125101Y-110341055D01*
X215120131Y-110336653D01*
X215052215Y-110234568D01*
X215039500Y-110154090D01*
X215049215Y-110076354D01*
X215084870Y-110051669D01*
X215156227Y-110075112D01*
X215175923Y-110085293D01*
X215228400Y-110117623D01*
X215325069Y-110181425D01*
X215459821Y-110272424D01*
X215626542Y-110386343D01*
X215819121Y-110518907D01*
X216031445Y-110665840D01*
X216257401Y-110822865D01*
X216490879Y-110985707D01*
X216725765Y-111150089D01*
X216955948Y-111311736D01*
X217175315Y-111466372D01*
X217377754Y-111609720D01*
X217557153Y-111737506D01*
X217707400Y-111845451D01*
X217822383Y-111929282D01*
X217895988Y-111984721D01*
X217920812Y-112005577D01*
X217973309Y-112092618D01*
X217992250Y-112177520D01*
X217992250Y-112177520D01*
X217992250Y-112177520D01*
G37*
X217992250Y-112177520D02*
X217983287Y-112244669D01*
X217947068Y-112267469D01*
X217920812Y-112268108D01*
X217881477Y-112249778D01*
X217795504Y-112198255D01*
X217668106Y-112117006D01*
X217504494Y-112009499D01*
X217309879Y-111879202D01*
X217089473Y-111729583D01*
X216848487Y-111564107D01*
X216592133Y-111386244D01*
X216525068Y-111339421D01*
X216264574Y-111156916D01*
X216017905Y-110983332D01*
X215790364Y-110822454D01*
X215587252Y-110678063D01*
X215413868Y-110553945D01*
X215275515Y-110453882D01*
X215177492Y-110381657D01*
X215125101Y-110341055D01*
X215120131Y-110336653D01*
X215052215Y-110234568D01*
X215039500Y-110154090D01*
X215049215Y-110076354D01*
X215084870Y-110051669D01*
X215156227Y-110075112D01*
X215175923Y-110085293D01*
X215228400Y-110117623D01*
X215325069Y-110181425D01*
X215459821Y-110272424D01*
X215626542Y-110386343D01*
X215819121Y-110518907D01*
X216031445Y-110665840D01*
X216257401Y-110822865D01*
X216490879Y-110985707D01*
X216725765Y-111150089D01*
X216955948Y-111311736D01*
X217175315Y-111466372D01*
X217377754Y-111609720D01*
X217557153Y-111737506D01*
X217707400Y-111845451D01*
X217822383Y-111929282D01*
X217895988Y-111984721D01*
X217920812Y-112005577D01*
X217973309Y-112092618D01*
X217992250Y-112177520D01*
X217992250Y-112177520D01*
G36*
X217992250Y-111289441D02*
X217986218Y-111372215D01*
X217963097Y-111408071D01*
X217933153Y-111413750D01*
X217896297Y-111396084D01*
X217812578Y-111345359D01*
X217687120Y-111264984D01*
X217525043Y-111158367D01*
X217331471Y-111028916D01*
X217111526Y-110880041D01*
X216870329Y-110715150D01*
X216613004Y-110537651D01*
X216527755Y-110478513D01*
X216265277Y-110295857D01*
X216016972Y-110122449D01*
X215788056Y-109961973D01*
X215583744Y-109818115D01*
X215409254Y-109694560D01*
X215269800Y-109594994D01*
X215170600Y-109523102D01*
X215116868Y-109482569D01*
X215110476Y-109477151D01*
X215059824Y-109406821D01*
X215040459Y-109308226D01*
X215039500Y-109269388D01*
X215048161Y-109169364D01*
X215073815Y-109128648D01*
X215079879Y-109127750D01*
X215112924Y-109145357D01*
X215191988Y-109195462D01*
X215311179Y-109273987D01*
X215464607Y-109376854D01*
X215646381Y-109499987D01*
X215850610Y-109639307D01*
X216071404Y-109790737D01*
X216302872Y-109950200D01*
X216539124Y-110113618D01*
X216774267Y-110276914D01*
X217002413Y-110436011D01*
X217217669Y-110586831D01*
X217414146Y-110725297D01*
X217585953Y-110847331D01*
X217727198Y-110948856D01*
X217831991Y-111025794D01*
X217894442Y-111074069D01*
X217904937Y-111083185D01*
X217970173Y-111166792D01*
X217991854Y-111268028D01*
X217992250Y-111289441D01*
X217992250Y-111289441D01*
X217992250Y-111289441D01*
G37*
X217992250Y-111289441D02*
X217986218Y-111372215D01*
X217963097Y-111408071D01*
X217933153Y-111413750D01*
X217896297Y-111396084D01*
X217812578Y-111345359D01*
X217687120Y-111264984D01*
X217525043Y-111158367D01*
X217331471Y-111028916D01*
X217111526Y-110880041D01*
X216870329Y-110715150D01*
X216613004Y-110537651D01*
X216527755Y-110478513D01*
X216265277Y-110295857D01*
X216016972Y-110122449D01*
X215788056Y-109961973D01*
X215583744Y-109818115D01*
X215409254Y-109694560D01*
X215269800Y-109594994D01*
X215170600Y-109523102D01*
X215116868Y-109482569D01*
X215110476Y-109477151D01*
X215059824Y-109406821D01*
X215040459Y-109308226D01*
X215039500Y-109269388D01*
X215048161Y-109169364D01*
X215073815Y-109128648D01*
X215079879Y-109127750D01*
X215112924Y-109145357D01*
X215191988Y-109195462D01*
X215311179Y-109273987D01*
X215464607Y-109376854D01*
X215646381Y-109499987D01*
X215850610Y-109639307D01*
X216071404Y-109790737D01*
X216302872Y-109950200D01*
X216539124Y-110113618D01*
X216774267Y-110276914D01*
X217002413Y-110436011D01*
X217217669Y-110586831D01*
X217414146Y-110725297D01*
X217585953Y-110847331D01*
X217727198Y-110948856D01*
X217831991Y-111025794D01*
X217894442Y-111074069D01*
X217904937Y-111083185D01*
X217970173Y-111166792D01*
X217991854Y-111268028D01*
X217992250Y-111289441D01*
X217992250Y-111289441D01*
G36*
X217992250Y-110351618D02*
X217988607Y-110439393D01*
X217972018Y-110480421D01*
X217933994Y-110491297D01*
X217920812Y-110491266D01*
X217880543Y-110473133D01*
X217793579Y-110421737D01*
X217665073Y-110340479D01*
X217500178Y-110232759D01*
X217304046Y-110101977D01*
X217081831Y-109951533D01*
X216838685Y-109784826D01*
X216609636Y-109626079D01*
X216353827Y-109447829D01*
X216108737Y-109276889D01*
X215880374Y-109117461D01*
X215674746Y-108973745D01*
X215497858Y-108849942D01*
X215355718Y-108750252D01*
X215254334Y-108678877D01*
X215203146Y-108642499D01*
X215036395Y-108522374D01*
X215045884Y-108340874D01*
X215053736Y-108237885D01*
X215067914Y-108183364D01*
X215095098Y-108162284D01*
X215126544Y-108159375D01*
X215168854Y-108177297D01*
X215256606Y-108228280D01*
X215383806Y-108308149D01*
X215544459Y-108412729D01*
X215732571Y-108537846D01*
X215942146Y-108679324D01*
X216167192Y-108832989D01*
X216401712Y-108994666D01*
X216639713Y-109160179D01*
X216875199Y-109325354D01*
X217102178Y-109486016D01*
X217314653Y-109637991D01*
X217506630Y-109777103D01*
X217672115Y-109899177D01*
X217805114Y-110000039D01*
X217899631Y-110075513D01*
X217949673Y-110121425D01*
X217955509Y-110129601D01*
X217978778Y-110212849D01*
X217991463Y-110320822D01*
X217992250Y-110351618D01*
X217992250Y-110351618D01*
X217992250Y-110351618D01*
G37*
X217992250Y-110351618D02*
X217988607Y-110439393D01*
X217972018Y-110480421D01*
X217933994Y-110491297D01*
X217920812Y-110491266D01*
X217880543Y-110473133D01*
X217793579Y-110421737D01*
X217665073Y-110340479D01*
X217500178Y-110232759D01*
X217304046Y-110101977D01*
X217081831Y-109951533D01*
X216838685Y-109784826D01*
X216609636Y-109626079D01*
X216353827Y-109447829D01*
X216108737Y-109276889D01*
X215880374Y-109117461D01*
X215674746Y-108973745D01*
X215497858Y-108849942D01*
X215355718Y-108750252D01*
X215254334Y-108678877D01*
X215203146Y-108642499D01*
X215036395Y-108522374D01*
X215045884Y-108340874D01*
X215053736Y-108237885D01*
X215067914Y-108183364D01*
X215095098Y-108162284D01*
X215126544Y-108159375D01*
X215168854Y-108177297D01*
X215256606Y-108228280D01*
X215383806Y-108308149D01*
X215544459Y-108412729D01*
X215732571Y-108537846D01*
X215942146Y-108679324D01*
X216167192Y-108832989D01*
X216401712Y-108994666D01*
X216639713Y-109160179D01*
X216875199Y-109325354D01*
X217102178Y-109486016D01*
X217314653Y-109637991D01*
X217506630Y-109777103D01*
X217672115Y-109899177D01*
X217805114Y-110000039D01*
X217899631Y-110075513D01*
X217949673Y-110121425D01*
X217955509Y-110129601D01*
X217978778Y-110212849D01*
X217991463Y-110320822D01*
X217992250Y-110351618D01*
X217992250Y-110351618D01*
G36*
X217992250Y-109237431D02*
X217990642Y-109349021D01*
X217982565Y-109411275D01*
X217963134Y-109438336D01*
X217927465Y-109444348D01*
X217920812Y-109444314D01*
X217880464Y-109426293D01*
X217792782Y-109374618D01*
X217662296Y-109292277D01*
X217493532Y-109182257D01*
X217291020Y-109047546D01*
X217059287Y-108891133D01*
X216802863Y-108716003D01*
X216526275Y-108525146D01*
X216500000Y-108506919D01*
X216237632Y-108324298D01*
X215989915Y-108150837D01*
X215761998Y-107990213D01*
X215559030Y-107846104D01*
X215386160Y-107722187D01*
X215248538Y-107622140D01*
X215151312Y-107549641D01*
X215099633Y-107508367D01*
X215093682Y-107502508D01*
X215060430Y-107432205D01*
X215043434Y-107333439D01*
X215041986Y-107225448D01*
X215055381Y-107127466D01*
X215082913Y-107058731D01*
X215110723Y-107038219D01*
X215144998Y-107054014D01*
X215225311Y-107102228D01*
X215345723Y-107178799D01*
X215500295Y-107279667D01*
X215683087Y-107400774D01*
X215888160Y-107538058D01*
X216109577Y-107687459D01*
X216341396Y-107844918D01*
X216577680Y-108006374D01*
X216812489Y-108167767D01*
X217039885Y-108325037D01*
X217253927Y-108474124D01*
X217448678Y-108610968D01*
X217618198Y-108731508D01*
X217756547Y-108831685D01*
X217857788Y-108907438D01*
X217915980Y-108954708D01*
X217920812Y-108959271D01*
X217961236Y-109010068D01*
X217983081Y-109074515D01*
X217991483Y-109172611D01*
X217992250Y-109237431D01*
X217992250Y-109237431D01*
X217992250Y-109237431D01*
G37*
X217992250Y-109237431D02*
X217990642Y-109349021D01*
X217982565Y-109411275D01*
X217963134Y-109438336D01*
X217927465Y-109444348D01*
X217920812Y-109444314D01*
X217880464Y-109426293D01*
X217792782Y-109374618D01*
X217662296Y-109292277D01*
X217493532Y-109182257D01*
X217291020Y-109047546D01*
X217059287Y-108891133D01*
X216802863Y-108716003D01*
X216526275Y-108525146D01*
X216500000Y-108506919D01*
X216237632Y-108324298D01*
X215989915Y-108150837D01*
X215761998Y-107990213D01*
X215559030Y-107846104D01*
X215386160Y-107722187D01*
X215248538Y-107622140D01*
X215151312Y-107549641D01*
X215099633Y-107508367D01*
X215093682Y-107502508D01*
X215060430Y-107432205D01*
X215043434Y-107333439D01*
X215041986Y-107225448D01*
X215055381Y-107127466D01*
X215082913Y-107058731D01*
X215110723Y-107038219D01*
X215144998Y-107054014D01*
X215225311Y-107102228D01*
X215345723Y-107178799D01*
X215500295Y-107279667D01*
X215683087Y-107400774D01*
X215888160Y-107538058D01*
X216109577Y-107687459D01*
X216341396Y-107844918D01*
X216577680Y-108006374D01*
X216812489Y-108167767D01*
X217039885Y-108325037D01*
X217253927Y-108474124D01*
X217448678Y-108610968D01*
X217618198Y-108731508D01*
X217756547Y-108831685D01*
X217857788Y-108907438D01*
X217915980Y-108954708D01*
X217920812Y-108959271D01*
X217961236Y-109010068D01*
X217983081Y-109074515D01*
X217991483Y-109172611D01*
X217992250Y-109237431D01*
X217992250Y-109237431D01*
G36*
X217992250Y-108115267D02*
X217991183Y-108240265D01*
X217985512Y-108314664D01*
X217971530Y-108351355D01*
X217945531Y-108363233D01*
X217920812Y-108363765D01*
X217871110Y-108345441D01*
X217780722Y-108296179D01*
X217660317Y-108222391D01*
X217520560Y-108130490D01*
X217436625Y-108072668D01*
X217306238Y-107981501D01*
X217133995Y-107861315D01*
X216930210Y-107719292D01*
X216705197Y-107562617D01*
X216469269Y-107398471D01*
X216232739Y-107234038D01*
X216134875Y-107166046D01*
X215919482Y-107015675D01*
X215716762Y-106872715D01*
X215533689Y-106742193D01*
X215377233Y-106629135D01*
X215254368Y-106538567D01*
X215172067Y-106475517D01*
X215142687Y-106450790D01*
X215090644Y-106397922D01*
X215059893Y-106349144D01*
X215044848Y-106285749D01*
X215039922Y-106189031D01*
X215039500Y-106105271D01*
X215040603Y-105981064D01*
X215046426Y-105907341D01*
X215060734Y-105871093D01*
X215087295Y-105859312D01*
X215110937Y-105858579D01*
X215148791Y-105876401D01*
X215232541Y-105926741D01*
X215356207Y-106005491D01*
X215513810Y-106108548D01*
X215699370Y-106231806D01*
X215906909Y-106371158D01*
X216130446Y-106522500D01*
X216364003Y-106681725D01*
X216601599Y-106844729D01*
X216837256Y-107007405D01*
X217064994Y-107165648D01*
X217278834Y-107315354D01*
X217472796Y-107452415D01*
X217640901Y-107572726D01*
X217777169Y-107672183D01*
X217875621Y-107746679D01*
X217930278Y-107792108D01*
X217936687Y-107798783D01*
X217967318Y-107852660D01*
X217984797Y-107933900D01*
X217991788Y-108057668D01*
X217992250Y-108115267D01*
X217992250Y-108115267D01*
X217992250Y-108115267D01*
G37*
X217992250Y-108115267D02*
X217991183Y-108240265D01*
X217985512Y-108314664D01*
X217971530Y-108351355D01*
X217945531Y-108363233D01*
X217920812Y-108363765D01*
X217871110Y-108345441D01*
X217780722Y-108296179D01*
X217660317Y-108222391D01*
X217520560Y-108130490D01*
X217436625Y-108072668D01*
X217306238Y-107981501D01*
X217133995Y-107861315D01*
X216930210Y-107719292D01*
X216705197Y-107562617D01*
X216469269Y-107398471D01*
X216232739Y-107234038D01*
X216134875Y-107166046D01*
X215919482Y-107015675D01*
X215716762Y-106872715D01*
X215533689Y-106742193D01*
X215377233Y-106629135D01*
X215254368Y-106538567D01*
X215172067Y-106475517D01*
X215142687Y-106450790D01*
X215090644Y-106397922D01*
X215059893Y-106349144D01*
X215044848Y-106285749D01*
X215039922Y-106189031D01*
X215039500Y-106105271D01*
X215040603Y-105981064D01*
X215046426Y-105907341D01*
X215060734Y-105871093D01*
X215087295Y-105859312D01*
X215110937Y-105858579D01*
X215148791Y-105876401D01*
X215232541Y-105926741D01*
X215356207Y-106005491D01*
X215513810Y-106108548D01*
X215699370Y-106231806D01*
X215906909Y-106371158D01*
X216130446Y-106522500D01*
X216364003Y-106681725D01*
X216601599Y-106844729D01*
X216837256Y-107007405D01*
X217064994Y-107165648D01*
X217278834Y-107315354D01*
X217472796Y-107452415D01*
X217640901Y-107572726D01*
X217777169Y-107672183D01*
X217875621Y-107746679D01*
X217930278Y-107792108D01*
X217936687Y-107798783D01*
X217967318Y-107852660D01*
X217984797Y-107933900D01*
X217991788Y-108057668D01*
X217992250Y-108115267D01*
X217992250Y-108115267D01*
G36*
X217976375Y-101664241D02*
X217976337Y-102359253D01*
X217976207Y-102993510D01*
X217975961Y-103569757D01*
X217975572Y-104090740D01*
X217975017Y-104559203D01*
X217974269Y-104977892D01*
X217973304Y-105349551D01*
X217972096Y-105676927D01*
X217970621Y-105962763D01*
X217968854Y-106209806D01*
X217966769Y-106420800D01*
X217964341Y-106598490D01*
X217961546Y-106745621D01*
X217958357Y-106864940D01*
X217954751Y-106959190D01*
X217950702Y-107031116D01*
X217946184Y-107083465D01*
X217941174Y-107118981D01*
X217935645Y-107140409D01*
X217929573Y-107150495D01*
X217926240Y-107152159D01*
X217875552Y-107140192D01*
X217792640Y-107099442D01*
X217703990Y-107044333D01*
X217453216Y-106872680D01*
X217270819Y-106747222D01*
X217270819Y-97380250D01*
X217095913Y-97380250D01*
X216921008Y-97380250D01*
X216904593Y-97525886D01*
X216887049Y-97621745D01*
X216862077Y-97692640D01*
X216851287Y-97708448D01*
X216804056Y-97726529D01*
X216710077Y-97742489D01*
X216586102Y-97753776D01*
X216537724Y-97756190D01*
X216399152Y-97759850D01*
X216296777Y-97752980D01*
X216224863Y-97727401D01*
X216177674Y-97674938D01*
X216149475Y-97587412D01*
X216134529Y-97456647D01*
X216127100Y-97274464D01*
X216124537Y-97167137D01*
X216121107Y-96944011D01*
X216125391Y-96776382D01*
X216142183Y-96656315D01*
X216176279Y-96575873D01*
X216232472Y-96527122D01*
X216315557Y-96502125D01*
X216430328Y-96492947D01*
X216532622Y-96491683D01*
X216692919Y-96501515D01*
X216799687Y-96534603D01*
X216859970Y-96595149D01*
X216880812Y-96687352D01*
X216881000Y-96699425D01*
X216881000Y-96808750D01*
X217055625Y-96808750D01*
X217230250Y-96808750D01*
X217230250Y-96662735D01*
X217215941Y-96501846D01*
X217169237Y-96379152D01*
X217084469Y-96290746D01*
X216955966Y-96232720D01*
X216778061Y-96201166D01*
X216547625Y-96192167D01*
X216306101Y-96202090D01*
X216118833Y-96234067D01*
X215978683Y-96293922D01*
X215878516Y-96387476D01*
X215811196Y-96520553D01*
X215769588Y-96698975D01*
X215753083Y-96840500D01*
X215746883Y-96993161D01*
X215750805Y-97169736D01*
X215763276Y-97354149D01*
X215782721Y-97530325D01*
X215807566Y-97682190D01*
X215836237Y-97793668D01*
X215849556Y-97825585D01*
X215918860Y-97924213D01*
X216014858Y-97994898D01*
X216145677Y-98040186D01*
X216319444Y-98062620D01*
X216544285Y-98064746D01*
X216606274Y-98062537D01*
X216811864Y-98046964D01*
X216960640Y-98019625D01*
X217034899Y-97992577D01*
X217131868Y-97925563D01*
X217197457Y-97828731D01*
X217237813Y-97690146D01*
X217253843Y-97567460D01*
X217270819Y-97380250D01*
X217270819Y-106747222D01*
X217269285Y-106746166D01*
X217269285Y-98523250D01*
X217094462Y-98523250D01*
X216919640Y-98523250D01*
X216908153Y-99240514D01*
X216904279Y-99471682D01*
X216900412Y-99647732D01*
X216895624Y-99777038D01*
X216888984Y-99867976D01*
X216879563Y-99928921D01*
X216866432Y-99968247D01*
X216848661Y-99994329D01*
X216825320Y-100015542D01*
X216821816Y-100018389D01*
X216736966Y-100056875D01*
X216612751Y-100078610D01*
X216471056Y-100083597D01*
X216333766Y-100071837D01*
X216222765Y-100043331D01*
X216178079Y-100018345D01*
X216153913Y-99997174D01*
X216135458Y-99972306D01*
X216121792Y-99935366D01*
X216111995Y-99877979D01*
X216105146Y-99791771D01*
X216100324Y-99668367D01*
X216096609Y-99499391D01*
X216093078Y-99276468D01*
X216092546Y-99240470D01*
X216081968Y-98523250D01*
X215909984Y-98523250D01*
X215738000Y-98523250D01*
X215738000Y-99169791D01*
X215739932Y-99464346D01*
X215747155Y-99702315D01*
X215761805Y-99890532D01*
X215786020Y-100035833D01*
X215821936Y-100145052D01*
X215871692Y-100225025D01*
X215937423Y-100282586D01*
X216021268Y-100324571D01*
X216107969Y-100353003D01*
X216241744Y-100377014D01*
X216408519Y-100387071D01*
X216588522Y-100384080D01*
X216761982Y-100368946D01*
X216909129Y-100342575D01*
X216998275Y-100312233D01*
X217069525Y-100273568D01*
X217125663Y-100230595D01*
X217168637Y-100175532D01*
X217200394Y-100100598D01*
X217222882Y-99998012D01*
X217238048Y-99859992D01*
X217247839Y-99678756D01*
X217254202Y-99446523D01*
X217257216Y-99277500D01*
X217269285Y-98523250D01*
X217269285Y-106746166D01*
X217262000Y-106741156D01*
X217262000Y-103444500D01*
X217262000Y-103301625D01*
X217262000Y-103158750D01*
X217236942Y-103158750D01*
X217236942Y-102139276D01*
X217231711Y-101983491D01*
X217209350Y-101864420D01*
X217162163Y-101775951D01*
X217082456Y-101711968D01*
X216962533Y-101666357D01*
X216794700Y-101633004D01*
X216571260Y-101605795D01*
X216564689Y-101605119D01*
X216416337Y-101587442D01*
X216289547Y-101567731D01*
X216198748Y-101548526D01*
X216159876Y-101533899D01*
X216131224Y-101476480D01*
X216120391Y-101383808D01*
X216127082Y-101281490D01*
X216151002Y-101195134D01*
X216164050Y-101172505D01*
X216195003Y-101142000D01*
X216242794Y-101123423D01*
X216321824Y-101114002D01*
X216446493Y-101110962D01*
X216484047Y-101110875D01*
X216644514Y-101116619D01*
X216751715Y-101137254D01*
X216815127Y-101177879D01*
X216844224Y-101243595D01*
X216849250Y-101307443D01*
X216854693Y-101349512D01*
X216881312Y-101371423D01*
X216944542Y-101379655D01*
X217023875Y-101380750D01*
X217198500Y-101380750D01*
X217198500Y-101268605D01*
X217185358Y-101159209D01*
X217153581Y-101049017D01*
X217152017Y-101045212D01*
X217105877Y-100965516D01*
X217037811Y-100907258D01*
X216938801Y-100867536D01*
X216799829Y-100843448D01*
X216611879Y-100832090D01*
X216484125Y-100830217D01*
X216251206Y-100835497D01*
X216073757Y-100857158D01*
X215944670Y-100900801D01*
X215856837Y-100972028D01*
X215803150Y-101076440D01*
X215776500Y-101219639D01*
X215769750Y-101393169D01*
X215774688Y-101528955D01*
X215794278Y-101635219D01*
X215835684Y-101716554D01*
X215906069Y-101777554D01*
X216012597Y-101822813D01*
X216162433Y-101856924D01*
X216362738Y-101884481D01*
X216568376Y-101905289D01*
X216685781Y-101921359D01*
X216783244Y-101943899D01*
X216835413Y-101965689D01*
X216872620Y-102026281D01*
X216889423Y-102122196D01*
X216885783Y-102228611D01*
X216861655Y-102320701D01*
X216836081Y-102360025D01*
X216773934Y-102390238D01*
X216668058Y-102412244D01*
X216537871Y-102424525D01*
X216402791Y-102425561D01*
X216282237Y-102413836D01*
X216246000Y-102406165D01*
X216172460Y-102379324D01*
X216132010Y-102333557D01*
X216105545Y-102246944D01*
X216104964Y-102244363D01*
X216075054Y-102111000D01*
X215902922Y-102111000D01*
X215730789Y-102111000D01*
X215752970Y-102258911D01*
X215787329Y-102423091D01*
X215839633Y-102536697D01*
X215920837Y-102612266D01*
X216041901Y-102662340D01*
X216122818Y-102682162D01*
X216238931Y-102696734D01*
X216391229Y-102702066D01*
X216561142Y-102699048D01*
X216730100Y-102688566D01*
X216879533Y-102671509D01*
X216990870Y-102648764D01*
X217018017Y-102639368D01*
X217116787Y-102578471D01*
X217183397Y-102486646D01*
X217221951Y-102354513D01*
X217236557Y-102172695D01*
X217236942Y-102139276D01*
X217236942Y-103158750D01*
X216500000Y-103158750D01*
X215738000Y-103158750D01*
X215738000Y-104079500D01*
X215738000Y-105000250D01*
X215912625Y-105000250D01*
X216087250Y-105000250D01*
X216087250Y-104619250D01*
X216087250Y-104238250D01*
X216595250Y-104238250D01*
X217103250Y-104238250D01*
X217103250Y-104095375D01*
X217103250Y-103952500D01*
X216595250Y-103952500D01*
X216087250Y-103952500D01*
X216087250Y-103698500D01*
X216087250Y-103444500D01*
X216674625Y-103444500D01*
X217262000Y-103444500D01*
X217262000Y-106741156D01*
X217191382Y-106692583D01*
X216923780Y-106507752D01*
X216655702Y-106321897D01*
X216392442Y-106138728D01*
X216139290Y-105961954D01*
X215901539Y-105795285D01*
X215684482Y-105642431D01*
X215493411Y-105507103D01*
X215333618Y-105393009D01*
X215210396Y-105303860D01*
X215129037Y-105243365D01*
X215095062Y-105215504D01*
X215087282Y-105204012D01*
X215080262Y-105186137D01*
X215073962Y-105158744D01*
X215068345Y-105118697D01*
X215063370Y-105062861D01*
X215059000Y-104988099D01*
X215055195Y-104891276D01*
X215051916Y-104769257D01*
X215049125Y-104618907D01*
X215046783Y-104437088D01*
X215044852Y-104220667D01*
X215043291Y-103966506D01*
X215042063Y-103671471D01*
X215041128Y-103332427D01*
X215040449Y-102946236D01*
X215039985Y-102509765D01*
X215039698Y-102019877D01*
X215039550Y-101473436D01*
X215039501Y-100867308D01*
X215039500Y-100728424D01*
X215039709Y-100022948D01*
X215040340Y-99380167D01*
X215041401Y-98799276D01*
X215042895Y-98279470D01*
X215044830Y-97819946D01*
X215047211Y-97419898D01*
X215050045Y-97078523D01*
X215053337Y-96795017D01*
X215057093Y-96568574D01*
X215061320Y-96398391D01*
X215066023Y-96283663D01*
X215071208Y-96223586D01*
X215073068Y-96215504D01*
X215095370Y-96169428D01*
X215145416Y-96074207D01*
X215219819Y-95936038D01*
X215315188Y-95761120D01*
X215428137Y-95555651D01*
X215555275Y-95325830D01*
X215693215Y-95077855D01*
X215777934Y-94926188D01*
X215943016Y-94631811D01*
X216080446Y-94388594D01*
X216193041Y-94191982D01*
X216283617Y-94037422D01*
X216354990Y-93920360D01*
X216409977Y-93836243D01*
X216451394Y-93780517D01*
X216482057Y-93748628D01*
X216504782Y-93736022D01*
X216514302Y-93735563D01*
X216538914Y-93751980D01*
X216578164Y-93798453D01*
X216634271Y-93878554D01*
X216709452Y-93995855D01*
X216805926Y-94153929D01*
X216925911Y-94356348D01*
X217071624Y-94606684D01*
X217245283Y-94908511D01*
X217277875Y-94965427D01*
X217976375Y-96185979D01*
X217976375Y-101664241D01*
X217976375Y-101664241D01*
X217976375Y-101664241D01*
G37*
X217976375Y-101664241D02*
X217976337Y-102359253D01*
X217976207Y-102993510D01*
X217975961Y-103569757D01*
X217975572Y-104090740D01*
X217975017Y-104559203D01*
X217974269Y-104977892D01*
X217973304Y-105349551D01*
X217972096Y-105676927D01*
X217970621Y-105962763D01*
X217968854Y-106209806D01*
X217966769Y-106420800D01*
X217964341Y-106598490D01*
X217961546Y-106745621D01*
X217958357Y-106864940D01*
X217954751Y-106959190D01*
X217950702Y-107031116D01*
X217946184Y-107083465D01*
X217941174Y-107118981D01*
X217935645Y-107140409D01*
X217929573Y-107150495D01*
X217926240Y-107152159D01*
X217875552Y-107140192D01*
X217792640Y-107099442D01*
X217703990Y-107044333D01*
X217453216Y-106872680D01*
X217270819Y-106747222D01*
X217270819Y-97380250D01*
X217095913Y-97380250D01*
X216921008Y-97380250D01*
X216904593Y-97525886D01*
X216887049Y-97621745D01*
X216862077Y-97692640D01*
X216851287Y-97708448D01*
X216804056Y-97726529D01*
X216710077Y-97742489D01*
X216586102Y-97753776D01*
X216537724Y-97756190D01*
X216399152Y-97759850D01*
X216296777Y-97752980D01*
X216224863Y-97727401D01*
X216177674Y-97674938D01*
X216149475Y-97587412D01*
X216134529Y-97456647D01*
X216127100Y-97274464D01*
X216124537Y-97167137D01*
X216121107Y-96944011D01*
X216125391Y-96776382D01*
X216142183Y-96656315D01*
X216176279Y-96575873D01*
X216232472Y-96527122D01*
X216315557Y-96502125D01*
X216430328Y-96492947D01*
X216532622Y-96491683D01*
X216692919Y-96501515D01*
X216799687Y-96534603D01*
X216859970Y-96595149D01*
X216880812Y-96687352D01*
X216881000Y-96699425D01*
X216881000Y-96808750D01*
X217055625Y-96808750D01*
X217230250Y-96808750D01*
X217230250Y-96662735D01*
X217215941Y-96501846D01*
X217169237Y-96379152D01*
X217084469Y-96290746D01*
X216955966Y-96232720D01*
X216778061Y-96201166D01*
X216547625Y-96192167D01*
X216306101Y-96202090D01*
X216118833Y-96234067D01*
X215978683Y-96293922D01*
X215878516Y-96387476D01*
X215811196Y-96520553D01*
X215769588Y-96698975D01*
X215753083Y-96840500D01*
X215746883Y-96993161D01*
X215750805Y-97169736D01*
X215763276Y-97354149D01*
X215782721Y-97530325D01*
X215807566Y-97682190D01*
X215836237Y-97793668D01*
X215849556Y-97825585D01*
X215918860Y-97924213D01*
X216014858Y-97994898D01*
X216145677Y-98040186D01*
X216319444Y-98062620D01*
X216544285Y-98064746D01*
X216606274Y-98062537D01*
X216811864Y-98046964D01*
X216960640Y-98019625D01*
X217034899Y-97992577D01*
X217131868Y-97925563D01*
X217197457Y-97828731D01*
X217237813Y-97690146D01*
X217253843Y-97567460D01*
X217270819Y-97380250D01*
X217270819Y-106747222D01*
X217269285Y-106746166D01*
X217269285Y-98523250D01*
X217094462Y-98523250D01*
X216919640Y-98523250D01*
X216908153Y-99240514D01*
X216904279Y-99471682D01*
X216900412Y-99647732D01*
X216895624Y-99777038D01*
X216888984Y-99867976D01*
X216879563Y-99928921D01*
X216866432Y-99968247D01*
X216848661Y-99994329D01*
X216825320Y-100015542D01*
X216821816Y-100018389D01*
X216736966Y-100056875D01*
X216612751Y-100078610D01*
X216471056Y-100083597D01*
X216333766Y-100071837D01*
X216222765Y-100043331D01*
X216178079Y-100018345D01*
X216153913Y-99997174D01*
X216135458Y-99972306D01*
X216121792Y-99935366D01*
X216111995Y-99877979D01*
X216105146Y-99791771D01*
X216100324Y-99668367D01*
X216096609Y-99499391D01*
X216093078Y-99276468D01*
X216092546Y-99240470D01*
X216081968Y-98523250D01*
X215909984Y-98523250D01*
X215738000Y-98523250D01*
X215738000Y-99169791D01*
X215739932Y-99464346D01*
X215747155Y-99702315D01*
X215761805Y-99890532D01*
X215786020Y-100035833D01*
X215821936Y-100145052D01*
X215871692Y-100225025D01*
X215937423Y-100282586D01*
X216021268Y-100324571D01*
X216107969Y-100353003D01*
X216241744Y-100377014D01*
X216408519Y-100387071D01*
X216588522Y-100384080D01*
X216761982Y-100368946D01*
X216909129Y-100342575D01*
X216998275Y-100312233D01*
X217069525Y-100273568D01*
X217125663Y-100230595D01*
X217168637Y-100175532D01*
X217200394Y-100100598D01*
X217222882Y-99998012D01*
X217238048Y-99859992D01*
X217247839Y-99678756D01*
X217254202Y-99446523D01*
X217257216Y-99277500D01*
X217269285Y-98523250D01*
X217269285Y-106746166D01*
X217262000Y-106741156D01*
X217262000Y-103444500D01*
X217262000Y-103301625D01*
X217262000Y-103158750D01*
X217236942Y-103158750D01*
X217236942Y-102139276D01*
X217231711Y-101983491D01*
X217209350Y-101864420D01*
X217162163Y-101775951D01*
X217082456Y-101711968D01*
X216962533Y-101666357D01*
X216794700Y-101633004D01*
X216571260Y-101605795D01*
X216564689Y-101605119D01*
X216416337Y-101587442D01*
X216289547Y-101567731D01*
X216198748Y-101548526D01*
X216159876Y-101533899D01*
X216131224Y-101476480D01*
X216120391Y-101383808D01*
X216127082Y-101281490D01*
X216151002Y-101195134D01*
X216164050Y-101172505D01*
X216195003Y-101142000D01*
X216242794Y-101123423D01*
X216321824Y-101114002D01*
X216446493Y-101110962D01*
X216484047Y-101110875D01*
X216644514Y-101116619D01*
X216751715Y-101137254D01*
X216815127Y-101177879D01*
X216844224Y-101243595D01*
X216849250Y-101307443D01*
X216854693Y-101349512D01*
X216881312Y-101371423D01*
X216944542Y-101379655D01*
X217023875Y-101380750D01*
X217198500Y-101380750D01*
X217198500Y-101268605D01*
X217185358Y-101159209D01*
X217153581Y-101049017D01*
X217152017Y-101045212D01*
X217105877Y-100965516D01*
X217037811Y-100907258D01*
X216938801Y-100867536D01*
X216799829Y-100843448D01*
X216611879Y-100832090D01*
X216484125Y-100830217D01*
X216251206Y-100835497D01*
X216073757Y-100857158D01*
X215944670Y-100900801D01*
X215856837Y-100972028D01*
X215803150Y-101076440D01*
X215776500Y-101219639D01*
X215769750Y-101393169D01*
X215774688Y-101528955D01*
X215794278Y-101635219D01*
X215835684Y-101716554D01*
X215906069Y-101777554D01*
X216012597Y-101822813D01*
X216162433Y-101856924D01*
X216362738Y-101884481D01*
X216568376Y-101905289D01*
X216685781Y-101921359D01*
X216783244Y-101943899D01*
X216835413Y-101965689D01*
X216872620Y-102026281D01*
X216889423Y-102122196D01*
X216885783Y-102228611D01*
X216861655Y-102320701D01*
X216836081Y-102360025D01*
X216773934Y-102390238D01*
X216668058Y-102412244D01*
X216537871Y-102424525D01*
X216402791Y-102425561D01*
X216282237Y-102413836D01*
X216246000Y-102406165D01*
X216172460Y-102379324D01*
X216132010Y-102333557D01*
X216105545Y-102246944D01*
X216104964Y-102244363D01*
X216075054Y-102111000D01*
X215902922Y-102111000D01*
X215730789Y-102111000D01*
X215752970Y-102258911D01*
X215787329Y-102423091D01*
X215839633Y-102536697D01*
X215920837Y-102612266D01*
X216041901Y-102662340D01*
X216122818Y-102682162D01*
X216238931Y-102696734D01*
X216391229Y-102702066D01*
X216561142Y-102699048D01*
X216730100Y-102688566D01*
X216879533Y-102671509D01*
X216990870Y-102648764D01*
X217018017Y-102639368D01*
X217116787Y-102578471D01*
X217183397Y-102486646D01*
X217221951Y-102354513D01*
X217236557Y-102172695D01*
X217236942Y-102139276D01*
X217236942Y-103158750D01*
X216500000Y-103158750D01*
X215738000Y-103158750D01*
X215738000Y-104079500D01*
X215738000Y-105000250D01*
X215912625Y-105000250D01*
X216087250Y-105000250D01*
X216087250Y-104619250D01*
X216087250Y-104238250D01*
X216595250Y-104238250D01*
X217103250Y-104238250D01*
X217103250Y-104095375D01*
X217103250Y-103952500D01*
X216595250Y-103952500D01*
X216087250Y-103952500D01*
X216087250Y-103698500D01*
X216087250Y-103444500D01*
X216674625Y-103444500D01*
X217262000Y-103444500D01*
X217262000Y-106741156D01*
X217191382Y-106692583D01*
X216923780Y-106507752D01*
X216655702Y-106321897D01*
X216392442Y-106138728D01*
X216139290Y-105961954D01*
X215901539Y-105795285D01*
X215684482Y-105642431D01*
X215493411Y-105507103D01*
X215333618Y-105393009D01*
X215210396Y-105303860D01*
X215129037Y-105243365D01*
X215095062Y-105215504D01*
X215087282Y-105204012D01*
X215080262Y-105186137D01*
X215073962Y-105158744D01*
X215068345Y-105118697D01*
X215063370Y-105062861D01*
X215059000Y-104988099D01*
X215055195Y-104891276D01*
X215051916Y-104769257D01*
X215049125Y-104618907D01*
X215046783Y-104437088D01*
X215044852Y-104220667D01*
X215043291Y-103966506D01*
X215042063Y-103671471D01*
X215041128Y-103332427D01*
X215040449Y-102946236D01*
X215039985Y-102509765D01*
X215039698Y-102019877D01*
X215039550Y-101473436D01*
X215039501Y-100867308D01*
X215039500Y-100728424D01*
X215039709Y-100022948D01*
X215040340Y-99380167D01*
X215041401Y-98799276D01*
X215042895Y-98279470D01*
X215044830Y-97819946D01*
X215047211Y-97419898D01*
X215050045Y-97078523D01*
X215053337Y-96795017D01*
X215057093Y-96568574D01*
X215061320Y-96398391D01*
X215066023Y-96283663D01*
X215071208Y-96223586D01*
X215073068Y-96215504D01*
X215095370Y-96169428D01*
X215145416Y-96074207D01*
X215219819Y-95936038D01*
X215315188Y-95761120D01*
X215428137Y-95555651D01*
X215555275Y-95325830D01*
X215693215Y-95077855D01*
X215777934Y-94926188D01*
X215943016Y-94631811D01*
X216080446Y-94388594D01*
X216193041Y-94191982D01*
X216283617Y-94037422D01*
X216354990Y-93920360D01*
X216409977Y-93836243D01*
X216451394Y-93780517D01*
X216482057Y-93748628D01*
X216504782Y-93736022D01*
X216514302Y-93735563D01*
X216538914Y-93751980D01*
X216578164Y-93798453D01*
X216634271Y-93878554D01*
X216709452Y-93995855D01*
X216805926Y-94153929D01*
X216925911Y-94356348D01*
X217071624Y-94606684D01*
X217245283Y-94908511D01*
X217277875Y-94965427D01*
X217976375Y-96185979D01*
X217976375Y-101664241D01*
X217976375Y-101664241D01*
D13*
X166700000Y-96200000D02*
X166700000Y-97000000D01*
X170700000Y-96200000D02*
X166700000Y-96200000D01*
X170700000Y-97000000D02*
X170700000Y-96200000D01*
X166700000Y-109800000D02*
X166700000Y-109000000D01*
X170700000Y-109800000D02*
X166700000Y-109800000D01*
X170700000Y-109000000D02*
X170700000Y-109800000D01*
X201750000Y-91500000D02*
X201750000Y-114500000D01*
X197000000Y-91500000D02*
X201750000Y-91500000D01*
X197000000Y-87250000D02*
X197000000Y-91500000D01*
X192000000Y-87250000D02*
X197000000Y-87250000D01*
X192000000Y-91500000D02*
X192000000Y-87250000D01*
X189000000Y-91500000D02*
X192000000Y-91500000D01*
X189000000Y-87250000D02*
X189000000Y-91500000D01*
X184000000Y-87250000D02*
X189000000Y-87250000D01*
X184000000Y-91500000D02*
X184000000Y-87250000D01*
X179250000Y-91500000D02*
X184000000Y-91500000D01*
X179250000Y-114500000D02*
X179250000Y-91500000D01*
X184000000Y-114500000D02*
X179250000Y-114500000D01*
X184000000Y-118750000D02*
X184000000Y-114500000D01*
X189000000Y-118750000D02*
X184000000Y-118750000D01*
X189000000Y-114500000D02*
X189000000Y-118750000D01*
X192000000Y-114500000D02*
X189000000Y-114500000D01*
X192000000Y-118750000D02*
X192000000Y-114500000D01*
X197000000Y-118750000D02*
X192000000Y-118750000D01*
X197000000Y-114500000D02*
X197000000Y-118750000D01*
X201750000Y-114500000D02*
X197000000Y-114500000D01*
%LPC*%
D15*
X224536000Y-82804000D03*
D16*
X224536000Y-80304000D03*
X227036000Y-82804000D03*
X224536000Y-85304000D03*
X222036000Y-82804000D03*
X222736000Y-81004000D03*
X226336000Y-81004000D03*
X222736000Y-84604000D03*
X226336000Y-84604000D03*
D17*
X156718000Y-124206000D03*
D18*
X156718000Y-121666000D03*
X156718000Y-119126000D03*
X156718000Y-116586000D03*
D19*
X162814000Y-124206000D03*
D20*
X160274000Y-124206000D03*
X162814000Y-121666000D03*
X160274000Y-121666000D03*
X162814000Y-119126000D03*
X160274000Y-119126000D03*
X162814000Y-116586000D03*
X160274000Y-116586000D03*
D15*
X156464000Y-82804000D03*
D16*
X156464000Y-80304000D03*
X158964000Y-82804000D03*
X156464000Y-85304000D03*
X153964000Y-82804000D03*
X154664000Y-81004000D03*
X158264000Y-81004000D03*
X154664000Y-84604000D03*
X158264000Y-84604000D03*
D21*
X163500000Y-103450000D03*
X163500000Y-102550000D03*
D22*
X167140000Y-108500000D03*
X170340000Y-108500000D03*
X167140000Y-107500000D03*
X170340000Y-107500000D03*
X167140000Y-106500000D03*
X170340000Y-106500000D03*
X167140000Y-105500000D03*
X170340000Y-105500000D03*
X167140000Y-104500000D03*
X170340000Y-104500000D03*
X167140000Y-103500000D03*
X170340000Y-103500000D03*
X167140000Y-102500000D03*
X170340000Y-102500000D03*
X167140000Y-101500000D03*
X170340000Y-101500000D03*
X167140000Y-100500000D03*
X170340000Y-100500000D03*
X167140000Y-99500000D03*
X170340000Y-99500000D03*
X167140000Y-98500000D03*
X170340000Y-98500000D03*
X167140000Y-97500000D03*
X170340000Y-97500000D03*
D23*
X186500000Y-89650000D03*
X194500000Y-116350000D03*
D24*
X190500000Y-89000000D03*
X198500000Y-89000000D03*
X182500000Y-89000000D03*
X182500000Y-117000000D03*
X190500000Y-117000000D03*
X198500000Y-117000000D03*
M02*
