M48
;DRILL file {KiCad 4.0.2-4+6225~38~ubuntu15.10.1-stable} date Sat 12 Mar 2016 12:18:01 GMT
;FORMAT={-:-/ absolute / inch / decimal}
FMAT,2
INCH,TZ
T1C0.016
T2C0.040
T3C0.063
T4C0.098
%
G90
G05
M72
T1
X2.3228Y-3.1315
X2.3622Y-3.1709
X2.4803Y-2.7165
X2.6378Y-3.1709
X2.7559Y-3.1315
T2
X2.2Y-3.3
X2.2Y-3.4
X2.2Y-3.5
X2.2Y-3.6
X2.35Y-3.3
X2.35Y-3.4
X2.35Y-3.5
X2.35Y-3.6
X2.45Y-3.3
X2.45Y-3.4
X2.45Y-3.5
X2.45Y-3.6
T3
X3.6205Y-3.2626
X3.6205Y-3.2626
T4
X3.148Y-2.1917
X3.148Y-2.1917
X3.148Y-3.2823
X3.148Y-3.2823
X3.3055Y-2.2114
X3.3055Y-2.2114
X3.463Y-2.1912
X3.463Y-2.1912
X3.463Y-3.2828
X3.463Y-3.2828
X3.7779Y-3.2823
X3.7779Y-3.2823
X3.778Y-2.1917
X3.778Y-2.1917
T0
M30
