G04 #@! TF.FileFunction,Copper,L2,Bot,Signal*
%FSLAX46Y46*%
G04 Gerber Fmt 4.6, Leading zero omitted, Abs format (unit mm)*
G04 Created by KiCad (PCBNEW 4.0.2-4+6225~38~ubuntu15.10.1-stable) date Sat 12 Mar 2016 12:16:19 GMT*
%MOMM*%
G01*
G04 APERTURE LIST*
%ADD10C,0.100000*%
%ADD11R,2.032000X1.727200*%
%ADD12O,2.032000X1.727200*%
%ADD13R,1.727200X1.727200*%
%ADD14O,1.727200X1.727200*%
%ADD15C,1.600200*%
%ADD16C,2.565400*%
%ADD17C,0.600000*%
%ADD18C,0.250000*%
%ADD19C,0.254000*%
G04 APERTURE END LIST*
D10*
D11*
X55880000Y-91440000D03*
D12*
X55880000Y-88900000D03*
X55880000Y-86360000D03*
X55880000Y-83820000D03*
D13*
X62230000Y-91440000D03*
D14*
X59690000Y-91440000D03*
X62230000Y-88900000D03*
X59690000Y-88900000D03*
X62230000Y-86360000D03*
X59690000Y-86360000D03*
X62230000Y-83820000D03*
X59690000Y-83820000D03*
D15*
X91959891Y-82869976D03*
X91959891Y-82869976D03*
X83959907Y-56170002D03*
X83959907Y-56170002D03*
D16*
X95959883Y-83370102D03*
X95959883Y-83370102D03*
X79959915Y-83370102D03*
X79959915Y-83370102D03*
X95960899Y-55669876D03*
X95960899Y-55669876D03*
X79958899Y-55669876D03*
X79958899Y-55669876D03*
X87959899Y-55657176D03*
X87959899Y-55657176D03*
X87959899Y-83382802D03*
X87959899Y-83382802D03*
D17*
X70000000Y-79540000D03*
X59000000Y-79540000D03*
X63000000Y-69000000D03*
X67000008Y-80540000D03*
X60000000Y-80540000D03*
D18*
X59000000Y-79540000D02*
X70000000Y-79540000D01*
X60000000Y-80540000D02*
X67000008Y-80540000D01*
D19*
G36*
X98484989Y-45312152D02*
X99074170Y-45705830D01*
X99467848Y-46295011D01*
X99620000Y-47059931D01*
X99620000Y-91370069D01*
X99467848Y-92134989D01*
X99074170Y-92724170D01*
X98484989Y-93117848D01*
X97720069Y-93270000D01*
X53409931Y-93270000D01*
X52645011Y-93117848D01*
X52055830Y-92724170D01*
X51662152Y-92134989D01*
X51510000Y-91370069D01*
X51510000Y-86360000D01*
X54196655Y-86360000D01*
X54310729Y-86933489D01*
X54635585Y-87419670D01*
X54950366Y-87630000D01*
X54635585Y-87840330D01*
X54310729Y-88326511D01*
X54196655Y-88900000D01*
X54310729Y-89473489D01*
X54635585Y-89959670D01*
X54649913Y-89969243D01*
X54628683Y-89973238D01*
X54412559Y-90112310D01*
X54267569Y-90324510D01*
X54216560Y-90576400D01*
X54216560Y-92303600D01*
X54260838Y-92538917D01*
X54399910Y-92755041D01*
X54612110Y-92900031D01*
X54864000Y-92951040D01*
X56896000Y-92951040D01*
X57131317Y-92906762D01*
X57347441Y-92767690D01*
X57492431Y-92555490D01*
X57543440Y-92303600D01*
X57543440Y-90576400D01*
X57499162Y-90341083D01*
X57360090Y-90124959D01*
X57147890Y-89979969D01*
X57106561Y-89971600D01*
X57124415Y-89959670D01*
X57449271Y-89473489D01*
X57563345Y-88900000D01*
X57449271Y-88326511D01*
X57124415Y-87840330D01*
X56809634Y-87630000D01*
X57124415Y-87419670D01*
X57449271Y-86933489D01*
X57563345Y-86360000D01*
X57449271Y-85786511D01*
X57124415Y-85300330D01*
X56814931Y-85093539D01*
X57230732Y-84722036D01*
X57484709Y-84194791D01*
X57487358Y-84179026D01*
X57366217Y-83947000D01*
X56007000Y-83947000D01*
X56007000Y-83967000D01*
X55753000Y-83967000D01*
X55753000Y-83947000D01*
X54393783Y-83947000D01*
X54272642Y-84179026D01*
X54275291Y-84194791D01*
X54529268Y-84722036D01*
X54945069Y-85093539D01*
X54635585Y-85300330D01*
X54310729Y-85786511D01*
X54196655Y-86360000D01*
X51510000Y-86360000D01*
X51510000Y-83790641D01*
X58191400Y-83790641D01*
X58191400Y-83849359D01*
X58305474Y-84422848D01*
X58630330Y-84909029D01*
X58901172Y-85090000D01*
X58630330Y-85270971D01*
X58305474Y-85757152D01*
X58191400Y-86330641D01*
X58191400Y-86389359D01*
X58305474Y-86962848D01*
X58630330Y-87449029D01*
X58901172Y-87630000D01*
X58630330Y-87810971D01*
X58305474Y-88297152D01*
X58191400Y-88870641D01*
X58191400Y-88929359D01*
X58305474Y-89502848D01*
X58630330Y-89989029D01*
X58901172Y-90170000D01*
X58630330Y-90350971D01*
X58305474Y-90837152D01*
X58191400Y-91410641D01*
X58191400Y-91469359D01*
X58305474Y-92042848D01*
X58630330Y-92529029D01*
X59116511Y-92853885D01*
X59690000Y-92967959D01*
X60263489Y-92853885D01*
X60749670Y-92529029D01*
X60763737Y-92507977D01*
X60828073Y-92663298D01*
X61006701Y-92841927D01*
X61240090Y-92938600D01*
X61944250Y-92938600D01*
X62103000Y-92779850D01*
X62103000Y-91567000D01*
X62357000Y-91567000D01*
X62357000Y-92779850D01*
X62515750Y-92938600D01*
X63219910Y-92938600D01*
X63453299Y-92841927D01*
X63631927Y-92663298D01*
X63728600Y-92429909D01*
X63728600Y-91725750D01*
X63569850Y-91567000D01*
X62357000Y-91567000D01*
X62103000Y-91567000D01*
X62083000Y-91567000D01*
X62083000Y-91313000D01*
X62103000Y-91313000D01*
X62103000Y-89027000D01*
X62357000Y-89027000D01*
X62357000Y-91313000D01*
X63569850Y-91313000D01*
X63728600Y-91154250D01*
X63728600Y-90450091D01*
X63631927Y-90216702D01*
X63453299Y-90038073D01*
X63253881Y-89955471D01*
X63436821Y-89788490D01*
X63684968Y-89259027D01*
X63594677Y-89085167D01*
X91814838Y-89085167D01*
X91822820Y-89104485D01*
X91822406Y-89578682D01*
X92343037Y-90838704D01*
X92603413Y-91099534D01*
X92656883Y-91228943D01*
X92919673Y-91492192D01*
X93048989Y-91545889D01*
X93306226Y-91803575D01*
X94565337Y-92326404D01*
X95043896Y-92326822D01*
X95063201Y-92334838D01*
X95435167Y-92335162D01*
X95454485Y-92327180D01*
X95928682Y-92327594D01*
X97188704Y-91806963D01*
X97449534Y-91546587D01*
X97578943Y-91493117D01*
X97842192Y-91230327D01*
X97895889Y-91101011D01*
X98153575Y-90843774D01*
X98676404Y-89584663D01*
X98676822Y-89106104D01*
X98684838Y-89086799D01*
X98685162Y-88714833D01*
X98677180Y-88695515D01*
X98677594Y-88221318D01*
X98156963Y-86961296D01*
X97896587Y-86700466D01*
X97843117Y-86571057D01*
X97580327Y-86307808D01*
X97451011Y-86254111D01*
X97193774Y-85996425D01*
X95934663Y-85473596D01*
X95456104Y-85473178D01*
X95436799Y-85465162D01*
X95064833Y-85464838D01*
X95045515Y-85472820D01*
X94571318Y-85472406D01*
X93311296Y-85993037D01*
X93050466Y-86253413D01*
X92921057Y-86306883D01*
X92657808Y-86569673D01*
X92604111Y-86698989D01*
X92346425Y-86956226D01*
X91823596Y-88215337D01*
X91823178Y-88693896D01*
X91815162Y-88713201D01*
X91814838Y-89085167D01*
X63594677Y-89085167D01*
X63564469Y-89027000D01*
X62357000Y-89027000D01*
X62103000Y-89027000D01*
X62083000Y-89027000D01*
X62083000Y-88773000D01*
X62103000Y-88773000D01*
X62103000Y-88753000D01*
X62357000Y-88753000D01*
X62357000Y-88773000D01*
X63564469Y-88773000D01*
X63684968Y-88540973D01*
X63436821Y-88011510D01*
X63018839Y-87629992D01*
X63289670Y-87449029D01*
X63614526Y-86962848D01*
X63728600Y-86389359D01*
X63728600Y-86330641D01*
X63614526Y-85757152D01*
X63289670Y-85270971D01*
X63018828Y-85090000D01*
X63289670Y-84909029D01*
X63614526Y-84422848D01*
X63728600Y-83849359D01*
X63728600Y-83790641D01*
X63720493Y-83749883D01*
X78041883Y-83749883D01*
X78333220Y-84454973D01*
X78872207Y-84994901D01*
X79576787Y-85287468D01*
X80339696Y-85288134D01*
X81044786Y-84996797D01*
X81584714Y-84457810D01*
X81873397Y-83762583D01*
X86041867Y-83762583D01*
X86333204Y-84467673D01*
X86872191Y-85007601D01*
X87576771Y-85300168D01*
X88339680Y-85300834D01*
X89044770Y-85009497D01*
X89584698Y-84470510D01*
X89877265Y-83765930D01*
X89877799Y-83154183D01*
X90524543Y-83154183D01*
X90742563Y-83681833D01*
X91145911Y-84085885D01*
X91673180Y-84304826D01*
X92244098Y-84305324D01*
X92771748Y-84087304D01*
X93109757Y-83749883D01*
X94041851Y-83749883D01*
X94333188Y-84454973D01*
X94872175Y-84994901D01*
X95576755Y-85287468D01*
X96339664Y-85288134D01*
X97044754Y-84996797D01*
X97584682Y-84457810D01*
X97877249Y-83753230D01*
X97877915Y-82990321D01*
X97586578Y-82285231D01*
X97047591Y-81745303D01*
X96343011Y-81452736D01*
X95580102Y-81452070D01*
X94875012Y-81743407D01*
X94335084Y-82282394D01*
X94042517Y-82986974D01*
X94041851Y-83749883D01*
X93109757Y-83749883D01*
X93175800Y-83683956D01*
X93394741Y-83156687D01*
X93395239Y-82585769D01*
X93177219Y-82058119D01*
X92773871Y-81654067D01*
X92246602Y-81435126D01*
X91675684Y-81434628D01*
X91148034Y-81652648D01*
X90743982Y-82055996D01*
X90525041Y-82583265D01*
X90524543Y-83154183D01*
X89877799Y-83154183D01*
X89877931Y-83003021D01*
X89586594Y-82297931D01*
X89047607Y-81758003D01*
X88343027Y-81465436D01*
X87580118Y-81464770D01*
X86875028Y-81756107D01*
X86335100Y-82295094D01*
X86042533Y-82999674D01*
X86041867Y-83762583D01*
X81873397Y-83762583D01*
X81877281Y-83753230D01*
X81877947Y-82990321D01*
X81586610Y-82285231D01*
X81047623Y-81745303D01*
X80343043Y-81452736D01*
X79580134Y-81452070D01*
X78875044Y-81743407D01*
X78335116Y-82282394D01*
X78042549Y-82986974D01*
X78041883Y-83749883D01*
X63720493Y-83749883D01*
X63614526Y-83217152D01*
X63289670Y-82730971D01*
X62803489Y-82406115D01*
X62230000Y-82292041D01*
X61656511Y-82406115D01*
X61170330Y-82730971D01*
X60960000Y-83045752D01*
X60749670Y-82730971D01*
X60263489Y-82406115D01*
X59690000Y-82292041D01*
X59116511Y-82406115D01*
X58630330Y-82730971D01*
X58305474Y-83217152D01*
X58191400Y-83790641D01*
X51510000Y-83790641D01*
X51510000Y-83460974D01*
X54272642Y-83460974D01*
X54393783Y-83693000D01*
X55753000Y-83693000D01*
X55753000Y-82479076D01*
X56007000Y-82479076D01*
X56007000Y-83693000D01*
X57366217Y-83693000D01*
X57487358Y-83460974D01*
X57484709Y-83445209D01*
X57230732Y-82917964D01*
X56794320Y-82528046D01*
X56241913Y-82334816D01*
X56007000Y-82479076D01*
X55753000Y-82479076D01*
X55518087Y-82334816D01*
X54965680Y-82528046D01*
X54529268Y-82917964D01*
X54275291Y-83445209D01*
X54272642Y-83460974D01*
X51510000Y-83460974D01*
X51510000Y-79725167D01*
X58064838Y-79725167D01*
X58206883Y-80068943D01*
X58469673Y-80332192D01*
X58813201Y-80474838D01*
X59065056Y-80475057D01*
X59064838Y-80725167D01*
X59206883Y-81068943D01*
X59469673Y-81332192D01*
X59813201Y-81474838D01*
X60185167Y-81475162D01*
X60528943Y-81333117D01*
X60562118Y-81300000D01*
X66437545Y-81300000D01*
X66469681Y-81332192D01*
X66813209Y-81474838D01*
X67185175Y-81475162D01*
X67528951Y-81333117D01*
X67792200Y-81070327D01*
X67934846Y-80726799D01*
X67935170Y-80354833D01*
X67912514Y-80300000D01*
X69437537Y-80300000D01*
X69469673Y-80332192D01*
X69813201Y-80474838D01*
X70185167Y-80475162D01*
X70528943Y-80333117D01*
X70792192Y-80070327D01*
X70934838Y-79726799D01*
X70935162Y-79354833D01*
X70793117Y-79011057D01*
X70530327Y-78747808D01*
X70186799Y-78605162D01*
X69814833Y-78604838D01*
X69471057Y-78746883D01*
X69437882Y-78780000D01*
X59562463Y-78780000D01*
X59530327Y-78747808D01*
X59186799Y-78605162D01*
X58814833Y-78604838D01*
X58471057Y-78746883D01*
X58207808Y-79009673D01*
X58065162Y-79353201D01*
X58064838Y-79725167D01*
X51510000Y-79725167D01*
X51510000Y-58000000D01*
X77873000Y-58000000D01*
X77873000Y-81000000D01*
X77881685Y-81046159D01*
X77908965Y-81088553D01*
X77950590Y-81116994D01*
X78000000Y-81127000D01*
X98000000Y-81127000D01*
X98046159Y-81118315D01*
X98088553Y-81091035D01*
X98116994Y-81049410D01*
X98127000Y-81000000D01*
X98127000Y-58000000D01*
X98118315Y-57953841D01*
X98091035Y-57911447D01*
X98049410Y-57883006D01*
X98000000Y-57873000D01*
X78000000Y-57873000D01*
X77953841Y-57881685D01*
X77911447Y-57908965D01*
X77883006Y-57950590D01*
X77873000Y-58000000D01*
X51510000Y-58000000D01*
X51510000Y-56049657D01*
X78040867Y-56049657D01*
X78332204Y-56754747D01*
X78871191Y-57294675D01*
X79575771Y-57587242D01*
X80338680Y-57587908D01*
X81043770Y-57296571D01*
X81583698Y-56757584D01*
X81709670Y-56454209D01*
X82524559Y-56454209D01*
X82742579Y-56981859D01*
X83145927Y-57385911D01*
X83673196Y-57604852D01*
X84244114Y-57605350D01*
X84771764Y-57387330D01*
X85175816Y-56983982D01*
X85394757Y-56456713D01*
X85395123Y-56036957D01*
X86041867Y-56036957D01*
X86333204Y-56742047D01*
X86872191Y-57281975D01*
X87576771Y-57574542D01*
X88339680Y-57575208D01*
X89044770Y-57283871D01*
X89584698Y-56744884D01*
X89873381Y-56049657D01*
X94042867Y-56049657D01*
X94334204Y-56754747D01*
X94873191Y-57294675D01*
X95577771Y-57587242D01*
X96340680Y-57587908D01*
X97045770Y-57296571D01*
X97585698Y-56757584D01*
X97878265Y-56053004D01*
X97878931Y-55290095D01*
X97587594Y-54585005D01*
X97048607Y-54045077D01*
X96344027Y-53752510D01*
X95581118Y-53751844D01*
X94876028Y-54043181D01*
X94336100Y-54582168D01*
X94043533Y-55286748D01*
X94042867Y-56049657D01*
X89873381Y-56049657D01*
X89877265Y-56040304D01*
X89877931Y-55277395D01*
X89586594Y-54572305D01*
X89047607Y-54032377D01*
X88343027Y-53739810D01*
X87580118Y-53739144D01*
X86875028Y-54030481D01*
X86335100Y-54569468D01*
X86042533Y-55274048D01*
X86041867Y-56036957D01*
X85395123Y-56036957D01*
X85395255Y-55885795D01*
X85177235Y-55358145D01*
X84773887Y-54954093D01*
X84246618Y-54735152D01*
X83675700Y-54734654D01*
X83148050Y-54952674D01*
X82743998Y-55356022D01*
X82525057Y-55883291D01*
X82524559Y-56454209D01*
X81709670Y-56454209D01*
X81876265Y-56053004D01*
X81876931Y-55290095D01*
X81585594Y-54585005D01*
X81046607Y-54045077D01*
X80342027Y-53752510D01*
X79579118Y-53751844D01*
X78874028Y-54043181D01*
X78334100Y-54582168D01*
X78041533Y-55286748D01*
X78040867Y-56049657D01*
X51510000Y-56049657D01*
X51510000Y-50223167D01*
X52198458Y-50223167D01*
X52206440Y-50242485D01*
X52206026Y-50716682D01*
X52726657Y-51976704D01*
X52987033Y-52237534D01*
X53040503Y-52366943D01*
X53303293Y-52630192D01*
X53432609Y-52683889D01*
X53689846Y-52941575D01*
X54948957Y-53464404D01*
X55427516Y-53464822D01*
X55446821Y-53472838D01*
X55818787Y-53473162D01*
X55838105Y-53465180D01*
X56312302Y-53465594D01*
X57572324Y-52944963D01*
X57833154Y-52684587D01*
X57962563Y-52631117D01*
X58225812Y-52368327D01*
X58279509Y-52239011D01*
X58537195Y-51981774D01*
X59060024Y-50722663D01*
X59060442Y-50244104D01*
X59068458Y-50224799D01*
X59068459Y-50223167D01*
X91814838Y-50223167D01*
X91822820Y-50242485D01*
X91822406Y-50716682D01*
X92343037Y-51976704D01*
X92603413Y-52237534D01*
X92656883Y-52366943D01*
X92919673Y-52630192D01*
X93048989Y-52683889D01*
X93306226Y-52941575D01*
X94565337Y-53464404D01*
X95043896Y-53464822D01*
X95063201Y-53472838D01*
X95435167Y-53473162D01*
X95454485Y-53465180D01*
X95928682Y-53465594D01*
X97188704Y-52944963D01*
X97449534Y-52684587D01*
X97578943Y-52631117D01*
X97842192Y-52368327D01*
X97895889Y-52239011D01*
X98153575Y-51981774D01*
X98676404Y-50722663D01*
X98676822Y-50244104D01*
X98684838Y-50224799D01*
X98685162Y-49852833D01*
X98677180Y-49833515D01*
X98677594Y-49359318D01*
X98156963Y-48099296D01*
X97896587Y-47838466D01*
X97843117Y-47709057D01*
X97580327Y-47445808D01*
X97451011Y-47392111D01*
X97193774Y-47134425D01*
X95934663Y-46611596D01*
X95456104Y-46611178D01*
X95436799Y-46603162D01*
X95064833Y-46602838D01*
X95045515Y-46610820D01*
X94571318Y-46610406D01*
X93311296Y-47131037D01*
X93050466Y-47391413D01*
X92921057Y-47444883D01*
X92657808Y-47707673D01*
X92604111Y-47836989D01*
X92346425Y-48094226D01*
X91823596Y-49353337D01*
X91823178Y-49831896D01*
X91815162Y-49851201D01*
X91814838Y-50223167D01*
X59068459Y-50223167D01*
X59068782Y-49852833D01*
X59060800Y-49833515D01*
X59061214Y-49359318D01*
X58540583Y-48099296D01*
X58280207Y-47838466D01*
X58226737Y-47709057D01*
X57963947Y-47445808D01*
X57834631Y-47392111D01*
X57577394Y-47134425D01*
X56318283Y-46611596D01*
X55839724Y-46611178D01*
X55820419Y-46603162D01*
X55448453Y-46602838D01*
X55429135Y-46610820D01*
X54954938Y-46610406D01*
X53694916Y-47131037D01*
X53434086Y-47391413D01*
X53304677Y-47444883D01*
X53041428Y-47707673D01*
X52987731Y-47836989D01*
X52730045Y-48094226D01*
X52207216Y-49353337D01*
X52206798Y-49831896D01*
X52198782Y-49851201D01*
X52198458Y-50223167D01*
X51510000Y-50223167D01*
X51510000Y-47059931D01*
X51662152Y-46295011D01*
X52055830Y-45705830D01*
X52645011Y-45312152D01*
X53409931Y-45160000D01*
X97720069Y-45160000D01*
X98484989Y-45312152D01*
X98484989Y-45312152D01*
G37*
X98484989Y-45312152D02*
X99074170Y-45705830D01*
X99467848Y-46295011D01*
X99620000Y-47059931D01*
X99620000Y-91370069D01*
X99467848Y-92134989D01*
X99074170Y-92724170D01*
X98484989Y-93117848D01*
X97720069Y-93270000D01*
X53409931Y-93270000D01*
X52645011Y-93117848D01*
X52055830Y-92724170D01*
X51662152Y-92134989D01*
X51510000Y-91370069D01*
X51510000Y-86360000D01*
X54196655Y-86360000D01*
X54310729Y-86933489D01*
X54635585Y-87419670D01*
X54950366Y-87630000D01*
X54635585Y-87840330D01*
X54310729Y-88326511D01*
X54196655Y-88900000D01*
X54310729Y-89473489D01*
X54635585Y-89959670D01*
X54649913Y-89969243D01*
X54628683Y-89973238D01*
X54412559Y-90112310D01*
X54267569Y-90324510D01*
X54216560Y-90576400D01*
X54216560Y-92303600D01*
X54260838Y-92538917D01*
X54399910Y-92755041D01*
X54612110Y-92900031D01*
X54864000Y-92951040D01*
X56896000Y-92951040D01*
X57131317Y-92906762D01*
X57347441Y-92767690D01*
X57492431Y-92555490D01*
X57543440Y-92303600D01*
X57543440Y-90576400D01*
X57499162Y-90341083D01*
X57360090Y-90124959D01*
X57147890Y-89979969D01*
X57106561Y-89971600D01*
X57124415Y-89959670D01*
X57449271Y-89473489D01*
X57563345Y-88900000D01*
X57449271Y-88326511D01*
X57124415Y-87840330D01*
X56809634Y-87630000D01*
X57124415Y-87419670D01*
X57449271Y-86933489D01*
X57563345Y-86360000D01*
X57449271Y-85786511D01*
X57124415Y-85300330D01*
X56814931Y-85093539D01*
X57230732Y-84722036D01*
X57484709Y-84194791D01*
X57487358Y-84179026D01*
X57366217Y-83947000D01*
X56007000Y-83947000D01*
X56007000Y-83967000D01*
X55753000Y-83967000D01*
X55753000Y-83947000D01*
X54393783Y-83947000D01*
X54272642Y-84179026D01*
X54275291Y-84194791D01*
X54529268Y-84722036D01*
X54945069Y-85093539D01*
X54635585Y-85300330D01*
X54310729Y-85786511D01*
X54196655Y-86360000D01*
X51510000Y-86360000D01*
X51510000Y-83790641D01*
X58191400Y-83790641D01*
X58191400Y-83849359D01*
X58305474Y-84422848D01*
X58630330Y-84909029D01*
X58901172Y-85090000D01*
X58630330Y-85270971D01*
X58305474Y-85757152D01*
X58191400Y-86330641D01*
X58191400Y-86389359D01*
X58305474Y-86962848D01*
X58630330Y-87449029D01*
X58901172Y-87630000D01*
X58630330Y-87810971D01*
X58305474Y-88297152D01*
X58191400Y-88870641D01*
X58191400Y-88929359D01*
X58305474Y-89502848D01*
X58630330Y-89989029D01*
X58901172Y-90170000D01*
X58630330Y-90350971D01*
X58305474Y-90837152D01*
X58191400Y-91410641D01*
X58191400Y-91469359D01*
X58305474Y-92042848D01*
X58630330Y-92529029D01*
X59116511Y-92853885D01*
X59690000Y-92967959D01*
X60263489Y-92853885D01*
X60749670Y-92529029D01*
X60763737Y-92507977D01*
X60828073Y-92663298D01*
X61006701Y-92841927D01*
X61240090Y-92938600D01*
X61944250Y-92938600D01*
X62103000Y-92779850D01*
X62103000Y-91567000D01*
X62357000Y-91567000D01*
X62357000Y-92779850D01*
X62515750Y-92938600D01*
X63219910Y-92938600D01*
X63453299Y-92841927D01*
X63631927Y-92663298D01*
X63728600Y-92429909D01*
X63728600Y-91725750D01*
X63569850Y-91567000D01*
X62357000Y-91567000D01*
X62103000Y-91567000D01*
X62083000Y-91567000D01*
X62083000Y-91313000D01*
X62103000Y-91313000D01*
X62103000Y-89027000D01*
X62357000Y-89027000D01*
X62357000Y-91313000D01*
X63569850Y-91313000D01*
X63728600Y-91154250D01*
X63728600Y-90450091D01*
X63631927Y-90216702D01*
X63453299Y-90038073D01*
X63253881Y-89955471D01*
X63436821Y-89788490D01*
X63684968Y-89259027D01*
X63594677Y-89085167D01*
X91814838Y-89085167D01*
X91822820Y-89104485D01*
X91822406Y-89578682D01*
X92343037Y-90838704D01*
X92603413Y-91099534D01*
X92656883Y-91228943D01*
X92919673Y-91492192D01*
X93048989Y-91545889D01*
X93306226Y-91803575D01*
X94565337Y-92326404D01*
X95043896Y-92326822D01*
X95063201Y-92334838D01*
X95435167Y-92335162D01*
X95454485Y-92327180D01*
X95928682Y-92327594D01*
X97188704Y-91806963D01*
X97449534Y-91546587D01*
X97578943Y-91493117D01*
X97842192Y-91230327D01*
X97895889Y-91101011D01*
X98153575Y-90843774D01*
X98676404Y-89584663D01*
X98676822Y-89106104D01*
X98684838Y-89086799D01*
X98685162Y-88714833D01*
X98677180Y-88695515D01*
X98677594Y-88221318D01*
X98156963Y-86961296D01*
X97896587Y-86700466D01*
X97843117Y-86571057D01*
X97580327Y-86307808D01*
X97451011Y-86254111D01*
X97193774Y-85996425D01*
X95934663Y-85473596D01*
X95456104Y-85473178D01*
X95436799Y-85465162D01*
X95064833Y-85464838D01*
X95045515Y-85472820D01*
X94571318Y-85472406D01*
X93311296Y-85993037D01*
X93050466Y-86253413D01*
X92921057Y-86306883D01*
X92657808Y-86569673D01*
X92604111Y-86698989D01*
X92346425Y-86956226D01*
X91823596Y-88215337D01*
X91823178Y-88693896D01*
X91815162Y-88713201D01*
X91814838Y-89085167D01*
X63594677Y-89085167D01*
X63564469Y-89027000D01*
X62357000Y-89027000D01*
X62103000Y-89027000D01*
X62083000Y-89027000D01*
X62083000Y-88773000D01*
X62103000Y-88773000D01*
X62103000Y-88753000D01*
X62357000Y-88753000D01*
X62357000Y-88773000D01*
X63564469Y-88773000D01*
X63684968Y-88540973D01*
X63436821Y-88011510D01*
X63018839Y-87629992D01*
X63289670Y-87449029D01*
X63614526Y-86962848D01*
X63728600Y-86389359D01*
X63728600Y-86330641D01*
X63614526Y-85757152D01*
X63289670Y-85270971D01*
X63018828Y-85090000D01*
X63289670Y-84909029D01*
X63614526Y-84422848D01*
X63728600Y-83849359D01*
X63728600Y-83790641D01*
X63720493Y-83749883D01*
X78041883Y-83749883D01*
X78333220Y-84454973D01*
X78872207Y-84994901D01*
X79576787Y-85287468D01*
X80339696Y-85288134D01*
X81044786Y-84996797D01*
X81584714Y-84457810D01*
X81873397Y-83762583D01*
X86041867Y-83762583D01*
X86333204Y-84467673D01*
X86872191Y-85007601D01*
X87576771Y-85300168D01*
X88339680Y-85300834D01*
X89044770Y-85009497D01*
X89584698Y-84470510D01*
X89877265Y-83765930D01*
X89877799Y-83154183D01*
X90524543Y-83154183D01*
X90742563Y-83681833D01*
X91145911Y-84085885D01*
X91673180Y-84304826D01*
X92244098Y-84305324D01*
X92771748Y-84087304D01*
X93109757Y-83749883D01*
X94041851Y-83749883D01*
X94333188Y-84454973D01*
X94872175Y-84994901D01*
X95576755Y-85287468D01*
X96339664Y-85288134D01*
X97044754Y-84996797D01*
X97584682Y-84457810D01*
X97877249Y-83753230D01*
X97877915Y-82990321D01*
X97586578Y-82285231D01*
X97047591Y-81745303D01*
X96343011Y-81452736D01*
X95580102Y-81452070D01*
X94875012Y-81743407D01*
X94335084Y-82282394D01*
X94042517Y-82986974D01*
X94041851Y-83749883D01*
X93109757Y-83749883D01*
X93175800Y-83683956D01*
X93394741Y-83156687D01*
X93395239Y-82585769D01*
X93177219Y-82058119D01*
X92773871Y-81654067D01*
X92246602Y-81435126D01*
X91675684Y-81434628D01*
X91148034Y-81652648D01*
X90743982Y-82055996D01*
X90525041Y-82583265D01*
X90524543Y-83154183D01*
X89877799Y-83154183D01*
X89877931Y-83003021D01*
X89586594Y-82297931D01*
X89047607Y-81758003D01*
X88343027Y-81465436D01*
X87580118Y-81464770D01*
X86875028Y-81756107D01*
X86335100Y-82295094D01*
X86042533Y-82999674D01*
X86041867Y-83762583D01*
X81873397Y-83762583D01*
X81877281Y-83753230D01*
X81877947Y-82990321D01*
X81586610Y-82285231D01*
X81047623Y-81745303D01*
X80343043Y-81452736D01*
X79580134Y-81452070D01*
X78875044Y-81743407D01*
X78335116Y-82282394D01*
X78042549Y-82986974D01*
X78041883Y-83749883D01*
X63720493Y-83749883D01*
X63614526Y-83217152D01*
X63289670Y-82730971D01*
X62803489Y-82406115D01*
X62230000Y-82292041D01*
X61656511Y-82406115D01*
X61170330Y-82730971D01*
X60960000Y-83045752D01*
X60749670Y-82730971D01*
X60263489Y-82406115D01*
X59690000Y-82292041D01*
X59116511Y-82406115D01*
X58630330Y-82730971D01*
X58305474Y-83217152D01*
X58191400Y-83790641D01*
X51510000Y-83790641D01*
X51510000Y-83460974D01*
X54272642Y-83460974D01*
X54393783Y-83693000D01*
X55753000Y-83693000D01*
X55753000Y-82479076D01*
X56007000Y-82479076D01*
X56007000Y-83693000D01*
X57366217Y-83693000D01*
X57487358Y-83460974D01*
X57484709Y-83445209D01*
X57230732Y-82917964D01*
X56794320Y-82528046D01*
X56241913Y-82334816D01*
X56007000Y-82479076D01*
X55753000Y-82479076D01*
X55518087Y-82334816D01*
X54965680Y-82528046D01*
X54529268Y-82917964D01*
X54275291Y-83445209D01*
X54272642Y-83460974D01*
X51510000Y-83460974D01*
X51510000Y-79725167D01*
X58064838Y-79725167D01*
X58206883Y-80068943D01*
X58469673Y-80332192D01*
X58813201Y-80474838D01*
X59065056Y-80475057D01*
X59064838Y-80725167D01*
X59206883Y-81068943D01*
X59469673Y-81332192D01*
X59813201Y-81474838D01*
X60185167Y-81475162D01*
X60528943Y-81333117D01*
X60562118Y-81300000D01*
X66437545Y-81300000D01*
X66469681Y-81332192D01*
X66813209Y-81474838D01*
X67185175Y-81475162D01*
X67528951Y-81333117D01*
X67792200Y-81070327D01*
X67934846Y-80726799D01*
X67935170Y-80354833D01*
X67912514Y-80300000D01*
X69437537Y-80300000D01*
X69469673Y-80332192D01*
X69813201Y-80474838D01*
X70185167Y-80475162D01*
X70528943Y-80333117D01*
X70792192Y-80070327D01*
X70934838Y-79726799D01*
X70935162Y-79354833D01*
X70793117Y-79011057D01*
X70530327Y-78747808D01*
X70186799Y-78605162D01*
X69814833Y-78604838D01*
X69471057Y-78746883D01*
X69437882Y-78780000D01*
X59562463Y-78780000D01*
X59530327Y-78747808D01*
X59186799Y-78605162D01*
X58814833Y-78604838D01*
X58471057Y-78746883D01*
X58207808Y-79009673D01*
X58065162Y-79353201D01*
X58064838Y-79725167D01*
X51510000Y-79725167D01*
X51510000Y-58000000D01*
X77873000Y-58000000D01*
X77873000Y-81000000D01*
X77881685Y-81046159D01*
X77908965Y-81088553D01*
X77950590Y-81116994D01*
X78000000Y-81127000D01*
X98000000Y-81127000D01*
X98046159Y-81118315D01*
X98088553Y-81091035D01*
X98116994Y-81049410D01*
X98127000Y-81000000D01*
X98127000Y-58000000D01*
X98118315Y-57953841D01*
X98091035Y-57911447D01*
X98049410Y-57883006D01*
X98000000Y-57873000D01*
X78000000Y-57873000D01*
X77953841Y-57881685D01*
X77911447Y-57908965D01*
X77883006Y-57950590D01*
X77873000Y-58000000D01*
X51510000Y-58000000D01*
X51510000Y-56049657D01*
X78040867Y-56049657D01*
X78332204Y-56754747D01*
X78871191Y-57294675D01*
X79575771Y-57587242D01*
X80338680Y-57587908D01*
X81043770Y-57296571D01*
X81583698Y-56757584D01*
X81709670Y-56454209D01*
X82524559Y-56454209D01*
X82742579Y-56981859D01*
X83145927Y-57385911D01*
X83673196Y-57604852D01*
X84244114Y-57605350D01*
X84771764Y-57387330D01*
X85175816Y-56983982D01*
X85394757Y-56456713D01*
X85395123Y-56036957D01*
X86041867Y-56036957D01*
X86333204Y-56742047D01*
X86872191Y-57281975D01*
X87576771Y-57574542D01*
X88339680Y-57575208D01*
X89044770Y-57283871D01*
X89584698Y-56744884D01*
X89873381Y-56049657D01*
X94042867Y-56049657D01*
X94334204Y-56754747D01*
X94873191Y-57294675D01*
X95577771Y-57587242D01*
X96340680Y-57587908D01*
X97045770Y-57296571D01*
X97585698Y-56757584D01*
X97878265Y-56053004D01*
X97878931Y-55290095D01*
X97587594Y-54585005D01*
X97048607Y-54045077D01*
X96344027Y-53752510D01*
X95581118Y-53751844D01*
X94876028Y-54043181D01*
X94336100Y-54582168D01*
X94043533Y-55286748D01*
X94042867Y-56049657D01*
X89873381Y-56049657D01*
X89877265Y-56040304D01*
X89877931Y-55277395D01*
X89586594Y-54572305D01*
X89047607Y-54032377D01*
X88343027Y-53739810D01*
X87580118Y-53739144D01*
X86875028Y-54030481D01*
X86335100Y-54569468D01*
X86042533Y-55274048D01*
X86041867Y-56036957D01*
X85395123Y-56036957D01*
X85395255Y-55885795D01*
X85177235Y-55358145D01*
X84773887Y-54954093D01*
X84246618Y-54735152D01*
X83675700Y-54734654D01*
X83148050Y-54952674D01*
X82743998Y-55356022D01*
X82525057Y-55883291D01*
X82524559Y-56454209D01*
X81709670Y-56454209D01*
X81876265Y-56053004D01*
X81876931Y-55290095D01*
X81585594Y-54585005D01*
X81046607Y-54045077D01*
X80342027Y-53752510D01*
X79579118Y-53751844D01*
X78874028Y-54043181D01*
X78334100Y-54582168D01*
X78041533Y-55286748D01*
X78040867Y-56049657D01*
X51510000Y-56049657D01*
X51510000Y-50223167D01*
X52198458Y-50223167D01*
X52206440Y-50242485D01*
X52206026Y-50716682D01*
X52726657Y-51976704D01*
X52987033Y-52237534D01*
X53040503Y-52366943D01*
X53303293Y-52630192D01*
X53432609Y-52683889D01*
X53689846Y-52941575D01*
X54948957Y-53464404D01*
X55427516Y-53464822D01*
X55446821Y-53472838D01*
X55818787Y-53473162D01*
X55838105Y-53465180D01*
X56312302Y-53465594D01*
X57572324Y-52944963D01*
X57833154Y-52684587D01*
X57962563Y-52631117D01*
X58225812Y-52368327D01*
X58279509Y-52239011D01*
X58537195Y-51981774D01*
X59060024Y-50722663D01*
X59060442Y-50244104D01*
X59068458Y-50224799D01*
X59068459Y-50223167D01*
X91814838Y-50223167D01*
X91822820Y-50242485D01*
X91822406Y-50716682D01*
X92343037Y-51976704D01*
X92603413Y-52237534D01*
X92656883Y-52366943D01*
X92919673Y-52630192D01*
X93048989Y-52683889D01*
X93306226Y-52941575D01*
X94565337Y-53464404D01*
X95043896Y-53464822D01*
X95063201Y-53472838D01*
X95435167Y-53473162D01*
X95454485Y-53465180D01*
X95928682Y-53465594D01*
X97188704Y-52944963D01*
X97449534Y-52684587D01*
X97578943Y-52631117D01*
X97842192Y-52368327D01*
X97895889Y-52239011D01*
X98153575Y-51981774D01*
X98676404Y-50722663D01*
X98676822Y-50244104D01*
X98684838Y-50224799D01*
X98685162Y-49852833D01*
X98677180Y-49833515D01*
X98677594Y-49359318D01*
X98156963Y-48099296D01*
X97896587Y-47838466D01*
X97843117Y-47709057D01*
X97580327Y-47445808D01*
X97451011Y-47392111D01*
X97193774Y-47134425D01*
X95934663Y-46611596D01*
X95456104Y-46611178D01*
X95436799Y-46603162D01*
X95064833Y-46602838D01*
X95045515Y-46610820D01*
X94571318Y-46610406D01*
X93311296Y-47131037D01*
X93050466Y-47391413D01*
X92921057Y-47444883D01*
X92657808Y-47707673D01*
X92604111Y-47836989D01*
X92346425Y-48094226D01*
X91823596Y-49353337D01*
X91823178Y-49831896D01*
X91815162Y-49851201D01*
X91814838Y-50223167D01*
X59068459Y-50223167D01*
X59068782Y-49852833D01*
X59060800Y-49833515D01*
X59061214Y-49359318D01*
X58540583Y-48099296D01*
X58280207Y-47838466D01*
X58226737Y-47709057D01*
X57963947Y-47445808D01*
X57834631Y-47392111D01*
X57577394Y-47134425D01*
X56318283Y-46611596D01*
X55839724Y-46611178D01*
X55820419Y-46603162D01*
X55448453Y-46602838D01*
X55429135Y-46610820D01*
X54954938Y-46610406D01*
X53694916Y-47131037D01*
X53434086Y-47391413D01*
X53304677Y-47444883D01*
X53041428Y-47707673D01*
X52987731Y-47836989D01*
X52730045Y-48094226D01*
X52207216Y-49353337D01*
X52206798Y-49831896D01*
X52198782Y-49851201D01*
X52198458Y-50223167D01*
X51510000Y-50223167D01*
X51510000Y-47059931D01*
X51662152Y-46295011D01*
X52055830Y-45705830D01*
X52645011Y-45312152D01*
X53409931Y-45160000D01*
X97720069Y-45160000D01*
X98484989Y-45312152D01*
M02*
