G04 #@! TF.FileFunction,Soldermask,Top*
%FSLAX46Y46*%
G04 Gerber Fmt 4.6, Leading zero omitted, Abs format (unit mm)*
G04 Created by KiCad (PCBNEW 0.201512291232+6408~40~ubuntu14.04.1-stable) date Mon 28 Mar 2016 01:31:09 BST*
%MOMM*%
G01*
G04 APERTURE LIST*
%ADD10C,0.100000*%
%ADD11C,6.300000*%
%ADD12C,0.600000*%
%ADD13R,2.032000X1.727200*%
%ADD14O,2.032000X1.727200*%
%ADD15R,1.727200X1.727200*%
%ADD16O,1.727200X1.727200*%
%ADD17R,0.620000X0.620000*%
%ADD18R,1.370000X0.500000*%
%ADD19C,1.588000*%
%ADD20C,2.100000*%
G04 APERTURE END LIST*
D10*
D11*
X224536000Y-82804000D03*
D12*
X224536000Y-80304000D03*
X227036000Y-82804000D03*
X224536000Y-85304000D03*
X222036000Y-82804000D03*
X222736000Y-81004000D03*
X226336000Y-81004000D03*
X222736000Y-84604000D03*
X226336000Y-84604000D03*
D13*
X156718000Y-124206000D03*
D14*
X156718000Y-121666000D03*
X156718000Y-119126000D03*
X156718000Y-116586000D03*
D15*
X162814000Y-124206000D03*
D16*
X160274000Y-124206000D03*
X162814000Y-121666000D03*
X160274000Y-121666000D03*
X162814000Y-119126000D03*
X160274000Y-119126000D03*
X162814000Y-116586000D03*
X160274000Y-116586000D03*
D11*
X156464000Y-82804000D03*
D12*
X156464000Y-80304000D03*
X158964000Y-82804000D03*
X156464000Y-85304000D03*
X153964000Y-82804000D03*
X154664000Y-81004000D03*
X158264000Y-81004000D03*
X154664000Y-84604000D03*
X158264000Y-84604000D03*
D17*
X163500000Y-103450000D03*
X163500000Y-102550000D03*
D18*
X168100000Y-108500000D03*
X171300000Y-108500000D03*
X168100000Y-107500000D03*
X171300000Y-107500000D03*
X168100000Y-106500000D03*
X171300000Y-106500000D03*
X168100000Y-105500000D03*
X171300000Y-105500000D03*
X168100000Y-104500000D03*
X171300000Y-104500000D03*
X168100000Y-103500000D03*
X171300000Y-103500000D03*
X168100000Y-102500000D03*
X171300000Y-102500000D03*
X168100000Y-101500000D03*
X171300000Y-101500000D03*
X168100000Y-100500000D03*
X171300000Y-100500000D03*
X168100000Y-99500000D03*
X171300000Y-99500000D03*
X168100000Y-98500000D03*
X171300000Y-98500000D03*
X168100000Y-97500000D03*
X171300000Y-97500000D03*
D19*
X186500000Y-89650000D03*
X194500000Y-116350000D03*
D20*
X190500000Y-89150000D03*
X198500000Y-89150000D03*
X182500000Y-89150000D03*
X182500000Y-116850000D03*
X190500000Y-116850000D03*
X198500000Y-116850000D03*
M02*
