M48
;DRILL file {KiCad 0.201512291232+6408~40~ubuntu14.04.1-stable} date Mon 28 Mar 2016 01:31:10 BST
;FORMAT={-:-/ absolute / inch / decimal}
FMAT,2
INCH,TZ
T1C0.024
T2C0.063
T3C0.083
T4C0.130
%
G90
G05
M72
T1
X6.0616Y-3.26
X6.0891Y-3.1891
X6.0891Y-3.3309
X6.16Y-3.1616
X6.16Y-3.3584
X6.2309Y-3.1891
X6.2309Y-3.3309
X6.2584Y-3.26
X8.7416Y-3.26
X8.7691Y-3.1891
X8.7691Y-3.3309
X8.84Y-3.1616
X8.84Y-3.3584
X8.9109Y-3.1891
X8.9109Y-3.3309
X8.9384Y-3.26
T2
X7.3425Y-3.5295
X7.6575Y-4.5807
T3
X7.185Y-3.5098
X7.185Y-4.6004
X7.5Y-3.5098
X7.5Y-4.6004
X7.815Y-3.5098
X7.815Y-4.6004
T4
X6.16Y-3.26
X8.84Y-3.26
T0
M30
